<svg xmlns="http://www.w3.org/2000/svg" viewBox="0 0 800 600" width="800" height="600">
<rect width="800" height="600" fill="#FFF0C2"/>
<defs>
<radialGradient id="well" cx="50%" cy="40%" r="60%"><stop offset="0" stop-color="#FFFFFF"/><stop offset="1" stop-color="#F0F1F4"/></radialGradient>
<linearGradient id="leaf" x1="0" y1="0" x2="1" y2="1"><stop offset="0" stop-color="#5DB24F"/><stop offset="1" stop-color="#3A8A3A"/></linearGradient>
<linearGradient id="meat" x1="0" y1="0" x2="0" y2="1"><stop offset="0" stop-color="#E9A643"/><stop offset=".5" stop-color="#C9792A"/><stop offset="1" stop-color="#8E4A16"/></linearGradient>
<radialGradient id="sambal" cx="45%" cy="30%" r="75%"><stop offset="0" stop-color="#EC4A2E"/><stop offset="1" stop-color="#B01C14"/></radialGradient>
<linearGradient id="stone" x1="0" y1="0" x2="0" y2="1"><stop offset="0" stop-color="#56514C"/><stop offset="1" stop-color="#34302D"/></linearGradient>
<linearGradient id="kol" x1="0" y1="0" x2="0" y2="1"><stop offset="0" stop-color="#E4F1B6"/><stop offset="1" stop-color="#BCD97C"/></linearGradient>
<path id="rice" d="M205 314C199 262 236 212 286 210C337 208 370 256 366 314C342 332 229 332 205 314Z"/>
<clipPath id="riceC"><use href="#rice"/></clipPath>
<path id="meatP" d="M-142.3 -19.9Q-141 -20.4 -138.3 -19.9Q-135.6 -19.5 -133.4 -20.6Q-131.2 -21.7 -129.4 -23.5Q-127.5 -25.2 -124.7 -25.1Q-121.9 -24.9 -119.6 -25.9Q-117.2 -26.8 -115.2 -28.5Q-113.1 -30.1 -110.7 -31.2Q-108.3 -32.3 -106.5 -34.6Q-104.7 -36.8 -102.6 -38.6Q-100.4 -40.5 -98.1 -42.1Q-95.7 -43.7 -92.6 -44.4Q-89.6 -45.1 -87.5 -47.4Q-85.3 -49.7 -82.4 -50.9Q-79.5 -52 -76.9 -53.9Q-74.3 -55.8 -71 -56.7Q-67.8 -57.7 -64.9 -59.5Q-62 -61.3 -58.8 -62.8Q-55.6 -64.4 -52.1 -65.4Q-48.6 -66.4 -44.9 -67.6Q-41.3 -68.8 -37.4 -70.3Q-33.6 -71.7 -29.4 -72.6Q-25.2 -73.4 -20.6 -72.2Q-16.1 -71.1 -11.7 -71.2Q-7.4 -71.4 -3.1 -72.5Q1.2 -73.7 5.1 -72.2Q9.1 -70.7 12.9 -69.7Q16.7 -68.7 20.5 -68Q24.2 -67.4 27.7 -66.4Q31.3 -65.4 34.7 -64.4Q38.1 -63.4 41.5 -62.7Q45 -61.9 47.8 -60Q50.6 -58 53.7 -57Q56.8 -55.9 59.1 -53.5Q61.3 -51.2 64.1 -49.8Q66.9 -48.4 69.6 -47Q72.4 -45.6 74.5 -43.5Q76.7 -41.4 78.8 -39.3Q81 -37.3 81.3 -34Q81.6 -30.8 83.1 -28.5Q84.5 -26.2 85.5 -23.6Q86.5 -21.1 89 -19Q91.4 -17 90.8 -13.9Q90.1 -10.9 91.2 -8.3Q92.2 -5.6 93 -2.8Q93.8 0 92.8 3Q91.7 6 91.3 8.9Q90.9 11.8 89.6 14.4Q88.3 17 87.9 19.8Q87.6 22.5 86.2 24.8Q84.8 27.2 83.4 29.5Q82 31.7 81.8 34.9Q81.5 38 78.5 39Q75.4 40 73.7 42Q72 44.1 70.1 46.2Q68.3 48.2 65.8 49.6Q63.3 51 61.7 54Q60.2 56.9 56.7 56.8Q53.3 56.7 50.7 58.3Q48.1 59.9 45.3 61.2Q42.4 62.5 39.3 63.3Q36.2 64.2 33 65.2Q29.9 66.3 26.6 67.5Q23.3 68.7 19.8 68.5Q16.2 68.3 12.5 68.2Q8.9 68.1 5.3 68.9Q1.6 69.8 -2.2 69.9Q-6 70.1 -9.8 69.8Q-13.6 69.5 -17.3 69.1Q-21 68.6 -24.6 68.7Q-28.3 68.8 -31.8 68.1Q-35.3 67.5 -38.6 66.3Q-41.9 65.1 -45 63.6Q-48.1 62.1 -51.2 60.8Q-54.4 59.5 -57.4 58.2Q-60.5 57 -63.6 55.7Q-66.6 54.4 -69.7 53.2Q-72.9 52.1 -75.4 49.8Q-77.9 47.6 -81.5 47.5Q-85.1 47.4 -87.3 44.6Q-89.4 41.8 -92.7 41.2Q-96 40.7 -98.3 38.2Q-100.5 35.7 -103.5 34.6Q-106.4 33.5 -109.6 32.9Q-112.7 32.3 -115.3 30.7Q-117.9 29 -120.5 27.5Q-123.1 25.9 -126 25Q-128.9 24.1 -131.7 23.2Q-134.6 22.4 -137.4 21Q-140.2 19.6 -141.1 19.2Q-141.9 18.8 -142.8 18.4Q-143.7 18 -144.6 17.5Q-145.5 17 -146.3 16.3Q-147.2 15.7 -147.7 14.8Q-148.3 13.9 -148.6 12.8Q-148.8 11.8 -148.9 10.6Q-148.9 9.5 -149 8.5Q-149.1 7.4 -149.5 6.4Q-149.9 5.4 -150.5 4.3Q-151.1 3.3 -151.6 2.1Q-152.1 1 -152.1 -0.2Q-152.1 -1.3 -151.5 -2.4Q-150.9 -3.5 -150.2 -4.5Q-149.5 -5.5 -149 -6.5Q-148.6 -7.4 -148.4 -8.5Q-148.2 -9.5 -148.1 -10.6Q-148 -11.7 -147.8 -12.8Q-147.6 -14 -147.1 -15Q-146.7 -16 -146 -17Q-145.3 -17.9 -144.4 -18.6Q-143.5 -19.4 -142.3 -19.9Z"/>
<clipPath id="meatC"><use href="#meatP"/></clipPath>
<ellipse id="gr" rx="5.2" ry="2.6" fill="#FFFFFF" stroke="#E8E3D6"/>
<ellipse id="gs" rx="5.2" ry="2.6" fill="#F7F4EC" stroke="#DCD5C3"/>
<g id="bT"><path transform="translate(1.4 2)" d="M6.6 -2.3Q7.7 0 5.3 1.2Q2.9 2.4 0.7 3.2Q-1.4 4.1 -5.1 3.4Q-8.8 2.8 -7.1 0.5Q-5.5 -1.7 -3.3 -2.5Q-1.2 -3.3 2.2 -4Q5.6 -4.6 6.6 -2.3Z" fill="#BF7426"/><path d="M5.5 -1.9Q6.4 0 4.6 1.2Q2.8 2.3 0.6 3.4Q-1.5 4.5 -4 3.3Q-6.5 2.1 -5 0.5Q-3.6 -1.1 -2.5 -2.6Q-1.4 -4.1 1.6 -4Q4.6 -3.8 5.5 -1.9Z" fill="#F2BE62"/><ellipse cx="-1.8" cy="-1.3" rx="2.2" ry="1.1" fill="#FFE0A0" opacity=".85"/></g>
<g id="bM"><path transform="translate(1.4 2)" d="M7.1 -2.2Q8.9 0 5.9 1.2Q2.9 2.4 0.7 3.5Q-1.6 4.5 -5.3 3.7Q-9 2.9 -7.4 0.5Q-5.8 -1.9 -3.6 -3Q-1.4 -4.1 1.9 -4.2Q5.3 -4.4 7.1 -2.2Z" fill="#93501A"/><path d="M4.1 -1.6Q4.3 0 4.1 1.7Q4 3.3 1.2 3.9Q-1.6 4.5 -2.5 2.8Q-3.5 1.1 -3.8 -0.1Q-4.2 -1.3 -3 -3.4Q-1.9 -5.5 1 -4.3Q3.9 -3.2 4.1 -1.6Z" fill="#D68C36"/><ellipse cx="-1.8" cy="-1.3" rx="2.2" ry="1.1" fill="#F0B860" opacity=".85"/></g>
<g id="bB"><path transform="translate(1.4 2)" d="M6.8 -2.1Q8.5 0 6 1.4Q3.4 2.8 0.7 4.2Q-1.9 5.6 -4.9 4Q-7.9 2.5 -6.3 0.5Q-4.8 -1.5 -3.2 -3Q-1.5 -4.4 1.8 -4.3Q5.2 -4.3 6.8 -2.1Z" fill="#66320E"/><path d="M4.1 -1.5Q4.5 0 4.7 2Q4.8 3.9 1.5 4.6Q-1.8 5.2 -3.1 3.3Q-4.4 1.4 -4.2 0.1Q-4 -1.3 -2.8 -2.8Q-1.5 -4.4 1.1 -3.7Q3.7 -3 4.1 -1.5Z" fill="#A15A1E"/><ellipse cx="-1.8" cy="-1.3" rx="2.2" ry="1.1" fill="#C27A30" opacity=".85"/></g>
</defs>
<circle cx="650" cy="70" r="200" fill="#FFF6DA"/>
<ellipse cx="392" cy="330" rx="352" ry="236" fill="#F9DF9C"/>
<ellipse cx="392" cy="330" rx="326" ry="214" fill="none" stroke="#F2D284" stroke-width="3"/>
<g transform="translate(400 310) scale(1.05) translate(-404 -330)">
<ellipse cx="366" cy="344" rx="238" ry="150" fill="#101828" opacity=".1"/>
<ellipse cx="360" cy="326" rx="232" ry="148" fill="#E6E8EC"/>
<ellipse cx="360" cy="320" rx="230" ry="144" fill="#FFFFFF"/>
<ellipse cx="360" cy="322" rx="188" ry="114" fill="url(#well)"/>
<path d="M180 286C210 236 280 206 360 206C440 206 510 236 540 286C505 248 440 226 360 226C280 226 215 248 180 286Z" fill="#E6E8EC" opacity=".5"/>
<path d="M150 318C170 262 232 222 312 210C372 202 418 214 446 236C410 300 340 352 252 368C200 376 160 360 150 318Z" fill="url(#leaf)"/>
<path d="M150 318C190 300 300 250 446 236C420 268 380 300 330 324C280 346 205 360 150 318Z" fill="#2F7A33" opacity=".35"/>
<path d="M156 322C220 296 330 258 444 236" fill="none" stroke="#9AD27F" stroke-width="3" stroke-linecap="round"/>
<path d="M190.6 311.7l-18 -34M217.9 303.5l-18 -34M245.3 295.3l-18 -34M272.6 287.2l-18 -34M300 279l-18 -34M327.4 270.8l-18 -34M354.7 262.7l-18 -34M382.1 254.5l-18 -34M409.4 246.3l-18 -34" stroke="#7CC066" stroke-width="1.6" opacity=".7" stroke-linecap="round"/>
<path d="M190.6 311.7l22 30M217.9 303.5l22 30M245.3 295.3l22 30M272.6 287.2l22 30M300 279l22 30M327.4 270.8l22 30M354.7 262.7l22 30M382.1 254.5l22 30M409.4 246.3l22 30" stroke="#2E7330" stroke-width="1.4" opacity=".5" stroke-linecap="round"/>
<ellipse cx="290" cy="320" rx="86" ry="17" fill="#101828" opacity=".14"/>
<use href="#rice" fill="#FBF9F2"/>
<g clip-path="url(#riceC)">
<path d="M300 208C346 222 372 262 368 316C346 330 316 334 290 334C330 300 334 240 300 208Z" fill="#EAE5D7"/>
<path d="M200 298C230 320 330 324 370 298L372 340L198 340Z" fill="#E2DCCB" opacity=".75"/>
<ellipse cx="256" cy="244" rx="30" ry="18" fill="#FFFFFF"/>
<use href="#gr" transform="translate(255.8 228.1) rotate(166)"/>
<use href="#gs" transform="translate(210 308.6) rotate(24)"/>
<use href="#gr" transform="translate(262.7 217) rotate(129)"/>
<use href="#gr" transform="translate(237.6 220.3) rotate(107)"/>
<use href="#gr" transform="translate(213.6 220.9) rotate(108)"/>
<use href="#gr" transform="translate(211.8 277.9) rotate(57)"/>
<use href="#gr" transform="translate(306.7 280) rotate(15)"/>
<use href="#gr" transform="translate(297.8 257.6) rotate(56)"/>
<use href="#gs" transform="translate(209.7 313) rotate(74)"/>
<use href="#gr" transform="translate(271.6 274.9) rotate(146)"/>
<use href="#gs" transform="translate(253.2 307.9) rotate(46)"/>
<use href="#gr" transform="translate(219.1 278.5) rotate(48)"/>
<use href="#gr" transform="translate(263.8 275.7) rotate(16)"/>
<use href="#gr" transform="translate(295.7 284.3) rotate(127)"/>
<use href="#gs" transform="translate(314.9 261.3) rotate(80)"/>
<use href="#gs" transform="translate(279.3 320.8) rotate(92)"/>
<use href="#gs" transform="translate(251.8 305.3) rotate(178)"/>
<use href="#gs" transform="translate(331.5 219.8) rotate(76)"/>
<use href="#gs" transform="translate(289.2 315) rotate(114)"/>
<use href="#gs" transform="translate(249.8 327.6) rotate(30)"/>
<use href="#gr" transform="translate(287 229.8) rotate(87)"/>
<use href="#gr" transform="translate(227.2 268.7) rotate(10)"/>
<use href="#gs" transform="translate(361.7 219.3) rotate(142)"/>
<use href="#gs" transform="translate(297.1 315.1) rotate(80)"/>
<use href="#gr" transform="translate(258.5 252) rotate(127)"/>
<use href="#gr" transform="translate(298.3 264.7) rotate(23)"/>
<use href="#gs" transform="translate(358.8 266.9) rotate(170)"/>
<use href="#gr" transform="translate(212.8 297.7) rotate(79)"/>
<use href="#gs" transform="translate(309.4 329.2) rotate(114)"/>
<use href="#gr" transform="translate(249.2 256.3) rotate(171)"/>
<use href="#gs" transform="translate(259.6 322.9) rotate(90)"/>
<use href="#gr" transform="translate(229.9 224.1) rotate(15)"/>
<use href="#gr" transform="translate(238.2 244.5) rotate(63)"/>
<use href="#gs" transform="translate(268.1 320) rotate(127)"/>
<use href="#gr" transform="translate(215.4 263.9) rotate(140)"/>
<use href="#gr" transform="translate(248.1 226.4) rotate(110)"/>
<use href="#gs" transform="translate(345.4 243.4) rotate(106)"/>
<use href="#gs" transform="translate(365.8 291.9) rotate(97)"/>
<use href="#gs" transform="translate(361 228.1) rotate(45)"/>
<use href="#gr" transform="translate(227.1 289) rotate(3)"/>
<use href="#gr" transform="translate(282.5 280.7) rotate(67)"/>
<use href="#gr" transform="translate(248.8 227.5) rotate(136)"/>
<use href="#gr" transform="translate(263.3 278) rotate(32)"/>
<use href="#gs" transform="translate(316.6 271.9) rotate(158)"/>
<use href="#gr" transform="translate(310.7 298.8) rotate(116)"/>
<use href="#gs" transform="translate(351.3 303.6) rotate(174)"/>
<use href="#gs" transform="translate(334.4 257.1) rotate(102)"/>
<use href="#gr" transform="translate(267.4 267.8) rotate(102)"/>
<use href="#gr" transform="translate(212.3 218.1) rotate(53)"/>
<use href="#gr" transform="translate(275.1 223.2) rotate(153)"/>
<use href="#gr" transform="translate(210.7 210) rotate(38)"/>
<use href="#gs" transform="translate(291.1 323.9) rotate(157)"/>
<use href="#gs" transform="translate(206.2 314.9) rotate(157)"/>
<use href="#gr" transform="translate(264.5 286.1) rotate(88)"/>
<use href="#gr" transform="translate(302 266.9) rotate(29)"/>
<use href="#gs" transform="translate(342.9 329.2) rotate(119)"/>
<use href="#gr" transform="translate(281.7 247.4) rotate(36)"/>
<use href="#gr" transform="translate(219 251.1) rotate(67)"/>
<use href="#gr" transform="translate(281.5 293) rotate(132)"/>
<use href="#gs" transform="translate(205.8 324.1) rotate(135)"/>
<use href="#gr" transform="translate(262.1 292.8) rotate(6)"/>
<use href="#gs" transform="translate(327.9 245.8) rotate(164)"/>
<use href="#gs" transform="translate(345.3 293.5) rotate(66)"/>
<use href="#gs" transform="translate(288.1 319) rotate(91)"/>
<use href="#gs" transform="translate(330.1 273.9) rotate(128)"/>
<use href="#gr" transform="translate(256.7 236.8) rotate(49)"/>
<use href="#gs" transform="translate(335.8 308.2) rotate(58)"/>
<use href="#gr" transform="translate(235.2 269.1) rotate(7)"/>
<use href="#gs" transform="translate(366.3 304.8) rotate(120)"/>
<use href="#gr" transform="translate(245 293.1) rotate(88)"/>
<use href="#gs" transform="translate(276.2 322.4) rotate(89)"/>
<use href="#gs" transform="translate(360.5 253.8) rotate(56)"/>
<use href="#gr" transform="translate(219 266.4) rotate(86)"/>
<use href="#gr" transform="translate(235.9 284.9) rotate(156)"/>
<use href="#gs" transform="translate(341.5 267.5) rotate(167)"/>
<use href="#gr" transform="translate(259.1 287.2) rotate(169)"/>
<use href="#gr" transform="translate(221.9 256.6) rotate(51)"/>
<use href="#gr" transform="translate(281.4 231.4) rotate(162)"/>
<use href="#gs" transform="translate(257.2 306.1) rotate(101)"/>
<use href="#gr" transform="translate(278.9 299.2) rotate(21)"/>
<use href="#gs" transform="translate(322.3 230.4) rotate(32)"/>
<use href="#gr" transform="translate(206.6 280.9) rotate(119)"/>
<use href="#gs" transform="translate(335.9 227.5) rotate(152)"/>
<use href="#gs" transform="translate(364.7 288.9) rotate(89)"/>
<use href="#gr" transform="translate(227.9 275.8) rotate(5)"/>
<use href="#gs" transform="translate(204.4 326.5) rotate(166)"/>
<use href="#gr" transform="translate(219.1 299.9) rotate(35)"/>
<use href="#gs" transform="translate(274 314.6) rotate(54)"/>
<use href="#gr" transform="translate(206.6 235.5) rotate(128)"/>
<use href="#gr" transform="translate(241.9 280.4) rotate(66)"/>
<use href="#gs" transform="translate(292.4 310.1) rotate(15)"/>
<use href="#gs" transform="translate(353.1 252.5) rotate(117)"/>
<use href="#gs" transform="translate(312 307.8) rotate(132)"/>
<use href="#gs" transform="translate(271.8 320.1) rotate(128)"/>
<use href="#gr" transform="translate(223.7 228.2) rotate(130)"/>
</g>
<use href="#gr" transform="translate(204.4 270) rotate(-114)"/>
<use href="#gr" transform="translate(205.4 261.2) rotate(-81)"/>
<use href="#gr" transform="translate(208.2 252.6) rotate(-83)"/>
<use href="#gr" transform="translate(212.7 244.4) rotate(-81)"/>
<use href="#gr" transform="translate(218.8 236.8) rotate(-32)"/>
<use href="#gr" transform="translate(226.5 229.9) rotate(-54)"/>
<use href="#gr" transform="translate(235.4 223.9) rotate(-31)"/>
<use href="#gr" transform="translate(245.5 218.9) rotate(-11)"/>
<use href="#gr" transform="translate(256.4 215.1) rotate(-13)"/>
<use href="#gr" transform="translate(268 212.5) rotate(-18)"/>
<use href="#gr" transform="translate(280 211.2) rotate(-2)"/>
<use href="#gr" transform="translate(292 211.2) rotate(5)"/>
<use href="#gr" transform="translate(304 212.5) rotate(23)"/>
<use href="#gr" transform="translate(315.4 215.1) rotate(-3)"/>
<use href="#gs" transform="translate(326.3 218.9) rotate(26)"/>
<use href="#gs" transform="translate(336.2 223.9) rotate(17)"/>
<use href="#gs" transform="translate(344.9 229.9) rotate(27)"/>
<use href="#gs" transform="translate(352.4 236.8) rotate(60)"/>
<use href="#gs" transform="translate(358.3 244.4) rotate(57)"/>
<use href="#gs" transform="translate(362.6 252.6) rotate(70)"/>
<use href="#gs" transform="translate(365.2 261.2) rotate(91)"/>
<use href="#gs" transform="translate(366 270) rotate(110)"/>
<use href="#gr" transform="translate(200 340) rotate(20)"/>
<use href="#gr" transform="translate(380 302) rotate(-30)"/>
<use href="#gr" transform="translate(374 320) rotate(60)"/>
<use href="#gr" transform="translate(216 332) rotate(100)"/>
<path d="M418 280C404 252 410 218 436 202Q446 186 466 190Q482 180 500 188Q520 186 530 202Q548 210 548 232Q558 250 544 266Q532 284 506 290C478 296 438 294 418 280Z" fill="url(#kol)"/>
<path d="M432 274C426 248 438 222 462 214C488 206 520 214 530 236C536 254 526 270 506 276C480 284 448 284 432 274Z" fill="#C6DE88"/>
<path d="M418 280C404 252 410 218 436 202Q446 186 466 190C440 204 426 236 438 280Z" fill="#EEF7CC"/>
<path d="M480 288Q464 258 440 216M480 288Q477 250 466 200M480 288Q494 250 500 200M480 288Q508 261 528 222M480 288Q515 277 542 254" fill="none" stroke="#F6FBE4" stroke-width="3.2" stroke-linecap="round"/>
<path d="M470 262C454 240 440 214 432 182M454 236C470 222 486 214 500 200" fill="none" stroke="#4E7A2A" stroke-width="3.4" stroke-linecap="round"/>
<g transform="translate(432 184) rotate(-95)"><path d="M0 0C7.8 -9 20.8 -7.2 26 0C20.8 7.2 7.8 9 0 0Z" fill="#3F9238"/><path d="M0 0C7.8 9 20.8 7.2 26 0Z" fill="#2C7030"/><path d="M2 0H20.8" stroke="#A8D88C" stroke-width="1.2"/></g>
<g transform="translate(433 190) rotate(-150)"><path d="M0 0C9 -11 24 -8.8 30 0C24 8.8 9 11 0 0Z" fill="#3F9238"/><path d="M0 0C9 11 24 8.8 30 0Z" fill="#2C7030"/><path d="M2 0H24" stroke="#A8D88C" stroke-width="1.2"/></g>
<g transform="translate(434 192) rotate(-30)"><path d="M0 0C9 -11 24 -8.8 30 0C24 8.8 9 11 0 0Z" fill="#3F9238"/><path d="M0 0C9 11 24 8.8 30 0Z" fill="#2C7030"/><path d="M2 0H24" stroke="#A8D88C" stroke-width="1.2"/></g>
<g transform="translate(440 210) rotate(-165)"><path d="M0 0C10.2 -12 27.2 -9.6 34 0C27.2 9.6 10.2 12 0 0Z" fill="#3F9238"/><path d="M0 0C10.2 12 27.2 9.6 34 0Z" fill="#2C7030"/><path d="M2 0H27.2" stroke="#A8D88C" stroke-width="1.2"/></g>
<g transform="translate(442 212) rotate(-10)"><path d="M0 0C10.2 -12 27.2 -9.6 34 0C27.2 9.6 10.2 12 0 0Z" fill="#3F9238"/><path d="M0 0C10.2 12 27.2 9.6 34 0Z" fill="#2C7030"/><path d="M2 0H27.2" stroke="#A8D88C" stroke-width="1.2"/></g>
<g transform="translate(452 232) rotate(180)"><path d="M0 0C10.2 -13 27.2 -10.4 34 0C27.2 10.4 10.2 13 0 0Z" fill="#3F9238"/><path d="M0 0C10.2 13 27.2 10.4 34 0Z" fill="#2C7030"/><path d="M2 0H27.2" stroke="#A8D88C" stroke-width="1.2"/></g>
<g transform="translate(456 234) rotate(10)"><path d="M0 0C9 -12 24 -9.6 30 0C24 9.6 9 12 0 0Z" fill="#3F9238"/><path d="M0 0C9 12 24 9.6 30 0Z" fill="#2C7030"/><path d="M2 0H24" stroke="#A8D88C" stroke-width="1.2"/></g>
<g transform="translate(500 200) rotate(-60)"><path d="M0 0C7.2 -9 19.2 -7.2 24 0C19.2 7.2 7.2 9 0 0Z" fill="#3F9238"/><path d="M0 0C7.2 9 19.2 7.2 24 0Z" fill="#2C7030"/><path d="M2 0H19.2" stroke="#A8D88C" stroke-width="1.2"/></g>
<g transform="translate(488 210) rotate(-120)"><path d="M0 0C8.4 -10 22.4 -8 28 0C22.4 8 8.4 10 0 0Z" fill="#3F9238"/><path d="M0 0C8.4 10 22.4 8 28 0Z" fill="#2C7030"/><path d="M2 0H22.4" stroke="#A8D88C" stroke-width="1.2"/></g>
<g transform="translate(488 212) rotate(20)"><path d="M0 0C8.4 -10 22.4 -8 28 0C22.4 8 8.4 10 0 0Z" fill="#3F9238"/><path d="M0 0C8.4 10 22.4 8 28 0Z" fill="#2C7030"/><path d="M2 0H22.4" stroke="#A8D88C" stroke-width="1.2"/></g>
<g transform="translate(470 222) rotate(-100)"><path d="M0 0C7.8 -10 20.8 -8 26 0C20.8 8 7.8 10 0 0Z" fill="#3F9238"/><path d="M0 0C7.8 10 20.8 8 26 0Z" fill="#2C7030"/><path d="M2 0H20.8" stroke="#A8D88C" stroke-width="1.2"/></g>
<path d="M432 184L428 166" stroke="#7E9C55" stroke-width="2.4" stroke-linecap="round"/>
<circle cx="426" cy="166" r="2.4" fill="#EDE3F0"/>
<circle cx="431" cy="172" r="2.4" fill="#EDE3F0"/>
<circle cx="426" cy="178" r="2.4" fill="#EDE3F0"/>
<ellipse cx="494" cy="292" rx="27" ry="19" fill="#2C6526"/><ellipse cx="494" cy="288" rx="27" ry="19" fill="#3F8433"/><ellipse cx="494" cy="288" rx="23" ry="16" fill="#E7F4CF"/><ellipse cx="494" cy="288" rx="14" ry="10" fill="#CFE6A6"/><ellipse cx="502.6" cy="290.1" rx="2.4" ry="1.5" fill="#F7FBEA"/><ellipse cx="496" cy="294.8" rx="2.4" ry="1.5" fill="#F7FBEA"/><ellipse cx="487.4" cy="292.8" rx="2.4" ry="1.5" fill="#F7FBEA"/><ellipse cx="485.4" cy="285.9" rx="2.4" ry="1.5" fill="#F7FBEA"/><ellipse cx="492" cy="281.2" rx="2.4" ry="1.5" fill="#F7FBEA"/><ellipse cx="500.6" cy="283.2" rx="2.4" ry="1.5" fill="#F7FBEA"/><path d="M475 284A21 14 0 0 1 490 274" fill="none" stroke="#FFFFFF" stroke-width="2" opacity=".7" stroke-linecap="round"/>
<ellipse cx="532" cy="306" rx="27" ry="19" fill="#2C6526"/><ellipse cx="532" cy="302" rx="27" ry="19" fill="#3F8433"/><ellipse cx="532" cy="302" rx="23" ry="16" fill="#E7F4CF"/><ellipse cx="532" cy="302" rx="14" ry="10" fill="#CFE6A6"/><ellipse cx="540.6" cy="304.1" rx="2.4" ry="1.5" fill="#F7FBEA"/><ellipse cx="534" cy="308.8" rx="2.4" ry="1.5" fill="#F7FBEA"/><ellipse cx="525.4" cy="306.8" rx="2.4" ry="1.5" fill="#F7FBEA"/><ellipse cx="523.4" cy="299.9" rx="2.4" ry="1.5" fill="#F7FBEA"/><ellipse cx="530" cy="295.2" rx="2.4" ry="1.5" fill="#F7FBEA"/><ellipse cx="538.6" cy="297.2" rx="2.4" ry="1.5" fill="#F7FBEA"/><path d="M513 298A21 14 0 0 1 528 288" fill="none" stroke="#FFFFFF" stroke-width="2" opacity=".7" stroke-linecap="round"/>
<ellipse cx="508" cy="324" rx="27" ry="19" fill="#2C6526"/><ellipse cx="508" cy="320" rx="27" ry="19" fill="#3F8433"/><ellipse cx="508" cy="320" rx="23" ry="16" fill="#E7F4CF"/><ellipse cx="508" cy="320" rx="14" ry="10" fill="#CFE6A6"/><ellipse cx="516.6" cy="322.1" rx="2.4" ry="1.5" fill="#F7FBEA"/><ellipse cx="510" cy="326.8" rx="2.4" ry="1.5" fill="#F7FBEA"/><ellipse cx="501.4" cy="324.8" rx="2.4" ry="1.5" fill="#F7FBEA"/><ellipse cx="499.4" cy="317.9" rx="2.4" ry="1.5" fill="#F7FBEA"/><ellipse cx="506" cy="313.2" rx="2.4" ry="1.5" fill="#F7FBEA"/><ellipse cx="514.6" cy="315.2" rx="2.4" ry="1.5" fill="#F7FBEA"/><path d="M489 316A21 14 0 0 1 504 306" fill="none" stroke="#FFFFFF" stroke-width="2" opacity=".7" stroke-linecap="round"/>
<ellipse cx="378" cy="394" rx="124" ry="18" transform="rotate(-12 378 394)" fill="#101828" opacity=".12"/>
<g transform="translate(408 360) rotate(-14)">
<path d="M-200 -10L-128 -14V14L-200 10Z" fill="#F2E6CC"/>
<path d="M-200 3L-128 4V14L-200 10Z" fill="#DCCBA8"/>
<circle cx="-204" cy="-11" r="14" fill="#F2E6CC"/>
<circle cx="-204" cy="11" r="14" fill="#E2D1AE"/>
<circle cx="-210" cy="-14" r="5" fill="#FBF5E8"/>
<use href="#meatP" fill="url(#meat)"/>
<g clip-path="url(#meatC)">
<path d="M-160 10C-110 34 -60 52 -6 52C44 52 80 32 96 2V80H-160Z" fill="#7A3B10" opacity=".5"/>
<path d="M-81.1 2.9Q-76.3 6 -79 10.3Q-81.7 14.7 -87.6 15.3Q-93.6 16 -97.7 14.6Q-101.8 13.3 -107.8 12Q-113.8 10.7 -114.7 5.8Q-115.6 0.9 -109.8 -1.6Q-104.1 -4 -98.9 -3.7Q-93.7 -3.4 -89.8 -1.8Q-85.9 -0.1 -81.1 2.9ZM-41.4 17.7Q-39 22 -39.2 27.6Q-39.5 33.2 -47.2 33.8Q-55 34.4 -61.3 34.3Q-67.7 34.1 -70.2 30Q-72.6 25.8 -74.7 21.4Q-76.8 17.1 -72.2 13.6Q-67.6 10.1 -60.8 7.9Q-54 5.8 -48.9 9.6Q-43.8 13.4 -41.4 17.7ZM-1.5 25Q0.3 30 -2.2 34.6Q-4.8 39.2 -10.3 43.1Q-15.8 47 -23.2 45Q-30.5 43.1 -32.1 38.3Q-33.7 33.6 -39 28.6Q-44.3 23.6 -38.3 19.2Q-32.3 14.7 -24.3 15.1Q-16.4 15.5 -9.9 17.7Q-3.3 19.9 -1.5 25ZM49.1 22.4Q56.1 26 51.6 31.2Q47.2 36.4 40.3 37.9Q33.3 39.4 27.8 37.5Q22.4 35.5 16.7 33.3Q11 31 10.7 25.9Q10.4 20.9 15.9 18.1Q21.5 15.4 27.5 13.6Q33.5 11.9 37.8 15.3Q42.1 18.7 49.1 22.4ZM73.3 0.6Q73.3 4 75 8.4Q76.7 12.9 71.2 16Q65.7 19.2 59.2 17.4Q52.7 15.6 50.1 11.7Q47.6 7.8 47.9 4.1Q48.1 0.4 50.2 -3.9Q52.3 -8.1 58.5 -7.7Q64.8 -7.3 69.1 -5.1Q73.4 -2.9 73.3 0.6ZM-31.1 -10.5Q-30.6 -8 -29.2 -4.3Q-27.7 -0.6 -32.4 1.9Q-37 4.3 -41.6 2.1Q-46.3 -0.1 -47.9 -2.8Q-49.4 -5.5 -50.3 -8.2Q-51.2 -10.9 -49.1 -13.9Q-47.1 -16.9 -42.1 -18.6Q-37 -20.2 -34.3 -16.7Q-31.6 -13.1 -31.1 -10.5ZM23.5 -7.1Q24.9 -4 25.7 0.4Q26.6 4.8 20.9 7Q15.2 9.2 10.5 6.5Q5.7 3.8 2.5 1.6Q-0.8 -0.6 -2.5 -4.5Q-4.3 -8.3 -0.8 -11.9Q2.7 -15.6 8.4 -14Q14.1 -12.5 18.1 -11.3Q22.1 -10.1 23.5 -7.1ZM59.6 -32.5Q60.9 -30 58.4 -28.2Q55.8 -26.5 53.7 -24.9Q51.6 -23.3 47.8 -22.8Q43.9 -22.4 40.5 -24.5Q37.2 -26.6 39.5 -29.4Q41.9 -32.1 43.4 -34.2Q44.9 -36.4 48.4 -37.2Q52 -38 55.1 -36.5Q58.3 -35 59.6 -32.5ZM-69.9 -16.5Q-68 -14 -69.1 -11Q-70.1 -8 -74.3 -7.7Q-78.4 -7.4 -81.4 -7.9Q-84.5 -8.4 -87.1 -9.9Q-89.6 -11.5 -91 -14.4Q-92.4 -17.3 -89.5 -19.7Q-86.5 -22.1 -82.5 -21Q-78.5 -20 -75.2 -19.4Q-71.9 -18.9 -69.9 -16.5Z" fill="#A9591A" opacity=".55"/>
<path d="M-64.3 38.8Q-62 40 -62.1 42.8Q-62.2 45.6 -66.1 45.8Q-70 46 -72.1 44.5Q-74.2 43 -75.4 41.5Q-76.6 40 -77.2 37.2Q-77.8 34.4 -73.9 34.6Q-70 34.9 -68.3 36.2Q-66.6 37.6 -64.3 38.8ZM14.7 42.2Q16.5 44 15.6 46.4Q14.7 48.9 11.4 50.8Q8 52.7 5.7 50Q3.4 47.3 2.6 45.6Q1.7 44 1.8 41.8Q1.8 39.6 4.9 38.1Q8 36.6 10.5 38.5Q12.9 40.5 14.7 42.2ZM57.6 28.5Q59 30 58.9 32.4Q58.8 34.9 55.4 35.3Q52 35.8 49.7 34.6Q47.4 33.3 45.9 31.7Q44.5 30 45.6 28.1Q46.7 26.2 49.4 25.2Q52 24.3 54.1 25.7Q56.1 27 57.6 28.5ZM-26 10.4Q-26.5 12 -26.5 13.3Q-26.5 14.5 -28.2 16.2Q-30 17.9 -32.5 16.7Q-35 15.6 -35.4 13.8Q-35.9 12 -35.1 10.4Q-34.3 8.9 -32.2 7.9Q-30 7 -27.7 7.9Q-25.5 8.7 -26 10.4ZM37.6 1Q38.5 2 38.6 3.7Q38.8 5.5 36.4 6Q34 6.6 31.9 5.8Q29.7 5.1 30 3.5Q30.4 2 29.6 0.2Q28.9 -1.7 31.4 -2.8Q34 -4 35.4 -2Q36.8 0 37.6 1Z" fill="#7C3C10" opacity=".6"/>
<path d="M-11.2 -44.9Q-8.7 -40 -11 -35Q-13.3 -29.9 -19.6 -26.7Q-25.9 -23.4 -33.8 -24.4Q-41.7 -25.4 -46 -30.1Q-50.3 -34.7 -50.7 -40.1Q-51.1 -45.5 -46.5 -50.2Q-41.9 -54.8 -34 -55.1Q-26.2 -55.4 -20 -52.6Q-13.8 -49.8 -11.2 -44.9ZM31.9 -50.1Q34.3 -46 33.7 -40.8Q33.1 -35.7 26 -34.9Q18.9 -34.2 12.5 -34Q6.2 -33.7 1.3 -37.3Q-3.5 -40.9 -3.3 -45.9Q-3 -51 1.1 -55.2Q5.2 -59.5 12 -58.5Q18.8 -57.6 24.2 -55.9Q29.6 -54.2 31.9 -50.1ZM-62.9 -25.6Q-61.6 -22 -63.8 -19Q-65.9 -15.9 -70 -14.8Q-74 -13.8 -78.4 -13.6Q-82.8 -13.5 -86.7 -15.8Q-90.6 -18.2 -89.7 -21.8Q-88.7 -25.3 -86 -28.2Q-83.2 -31 -78.4 -31.4Q-73.6 -31.8 -68.9 -30.4Q-64.2 -29.1 -62.9 -25.6ZM60.1 -42.4Q60.1 -40 60.7 -37.2Q61.2 -34.5 57.6 -33Q54.1 -31.6 49.6 -31.5Q45.2 -31.5 44.4 -34.6Q43.6 -37.8 42.2 -40.4Q40.8 -42.9 43.4 -45.3Q45.9 -47.6 50.2 -48.9Q54.5 -50.2 57.2 -47.5Q60 -44.8 60.1 -42.4Z" fill="#F3BC5C" opacity=".75"/>
<use href="#bT" transform="translate(-3.3 -59.8) scale(0.8)"/>
<use href="#bT" transform="translate(5.2 -58.1) scale(0.6)"/>
<use href="#bT" transform="translate(36.4 -55.3) scale(0.6)"/>
<use href="#bT" transform="translate(-1.3 -50.9) scale(0.7)"/>
<use href="#bT" transform="translate(48.2 -41.6) scale(0.8)"/>
<use href="#bT" transform="translate(-62.9 -37.2) scale(0.6)"/>
<use href="#bT" transform="translate(-71.9 -34.4) scale(0.9)"/>
<use href="#bT" transform="translate(-51.7 -31) scale(0.9)"/>
<use href="#bT" transform="translate(25.5 -26.4) scale(0.9)"/>
<use href="#bM" transform="translate(-38.3 -15.7) scale(0.9)"/>
<use href="#bM" transform="translate(79.7 -14.9) scale(0.6)"/>
<use href="#bM" transform="translate(65 -12.9) scale(0.8)"/>
<use href="#bM" transform="translate(-117.1 -10.9) scale(0.6)"/>
<use href="#bM" transform="translate(18.5 -9.1) scale(0.9)"/>
<use href="#bM" transform="translate(-5.7 4.7) scale(0.8)"/>
<use href="#bM" transform="translate(-103.7 5.8) scale(0.9)"/>
<use href="#bM" transform="translate(-82.4 9.3) scale(0.6)"/>
<use href="#bM" transform="translate(-12.8 10.5) scale(0.6)"/>
<use href="#bM" transform="translate(39.3 11.6) scale(0.9)"/>
<use href="#bM" transform="translate(61.7 13.3) scale(0.8)"/>
<use href="#bM" transform="translate(-65.5 17.8) scale(0.8)"/>
<use href="#bM" transform="translate(0.5 18.3) scale(0.7)"/>
<use href="#bM" transform="translate(-86.3 19.9) scale(0.9)"/>
<use href="#bM" transform="translate(-12 20) scale(0.7)"/>
<use href="#bM" transform="translate(46.1 23.6) scale(0.7)"/>
<use href="#bM" transform="translate(-73.6 25.5) scale(0.7)"/>
<use href="#bM" transform="translate(54.8 29.7) scale(0.7)"/>
<use href="#bB" transform="translate(-19.8 38.8) scale(0.8)"/>
<use href="#bB" transform="translate(-29.6 41.9) scale(0.9)"/>
<use href="#bB" transform="translate(-14.7 48.3) scale(0.6)"/>
<use href="#bB" transform="translate(-31.2 53.5) scale(0.6)"/>
<use href="#bB" transform="translate(32.2 54.1) scale(0.8)"/>
<use href="#bB" transform="translate(7 56.2) scale(0.8)"/>
<path d="M-118 -30C-88 -46 -56 -60 -12 -60C26 -60 52 -50 64 -36C30 -46 -10 -46 -48 -40C-78 -36 -102 -30 -118 -30Z" fill="#FFE0A0" opacity=".5"/>
<path d="M-100 -34C-70 -48 -40 -54 -4 -54" fill="none" stroke="#FFF1CC" stroke-width="4" stroke-linecap="round" opacity=".8"/>
<path d="M20 -54C40 -52 56 -44 66 -34" fill="none" stroke="#FFF1CC" stroke-width="3" stroke-linecap="round" opacity=".6"/>
</g>
</g>
<ellipse cx="500" cy="372" rx="5" ry="3.5" fill="#D38C30"/><ellipse cx="514" cy="360" rx="3.5" ry="2.4" fill="#B8691F"/><ellipse cx="488" cy="390" rx="3" ry="2.1" fill="#E9A243"/><ellipse cx="268" cy="414" rx="4" ry="2.8" fill="#C97A26"/><ellipse cx="300" cy="422" rx="3" ry="2.1" fill="#E2A044"/><ellipse cx="522" cy="384" rx="3" ry="2.1" fill="#C97A26"/><ellipse cx="458" cy="406" rx="3.2" ry="2.2" fill="#B8691F"/><ellipse cx="250" cy="400" rx="2.6" ry="1.8" fill="#E2A044"/><ellipse cx="536" cy="370" rx="2.4" ry="1.7" fill="#D38C30"/>
<g transform="translate(-12 0)">
<ellipse cx="598" cy="484" rx="102" ry="28" fill="#101828" opacity=".13"/>
<path d="M504 448C508 490 556 508 594 508C632 508 680 490 684 448Z" fill="url(#stone)"/>
<ellipse cx="594" cy="448" rx="90" ry="40" fill="#635D57"/>
<path d="M504 448A90 40 0 0 1 684 448A90 33 0 0 0 504 448Z" fill="#7C756D"/>
<ellipse cx="594" cy="452" rx="76" ry="31" fill="#2E2A27"/>
<ellipse cx="592" cy="458" rx="66" ry="24" fill="#9E160E"/>
<path d="M530 458C530 432 562 418 592 418C626 418 656 432 656 458C640 474 548 474 530 458Z" fill="url(#sambal)"/>
<ellipse cx="588" cy="446.4" rx="6.7" ry="2.7" fill="#C32519"/><ellipse cx="559.6" cy="444.5" rx="5.5" ry="3.2" fill="#8E130C"/><ellipse cx="587.3" cy="429.7" rx="5.2" ry="3.3" fill="#8E130C"/><ellipse cx="603.1" cy="439.8" rx="4.8" ry="3.1" fill="#C32519"/><ellipse cx="606.1" cy="457.3" rx="3.3" ry="2.1" fill="#C32519"/><ellipse cx="603.6" cy="455.1" rx="4.3" ry="2.9" fill="#C32519"/><ellipse cx="595" cy="449.6" rx="5" ry="3" fill="#D93A22"/><ellipse cx="609.4" cy="440.3" rx="5.2" ry="3.4" fill="#8E130C"/><ellipse cx="615" cy="436.6" rx="3.9" ry="2.4" fill="#8E130C"/><ellipse cx="599.7" cy="428.3" rx="3.4" ry="2.4" fill="#8E130C"/><ellipse cx="641.6" cy="457.9" rx="3" ry="2.3" fill="#8E130C"/><ellipse cx="589.8" cy="463.2" rx="4.6" ry="2.1" fill="#C32519"/><ellipse cx="622.5" cy="434.8" rx="3.3" ry="2.5" fill="#D93A22"/><ellipse cx="620.4" cy="428.7" rx="4" ry="2.2" fill="#8E130C"/><ellipse cx="589.3" cy="443.5" rx="5.7" ry="2.3" fill="#C32519"/><ellipse cx="644.4" cy="454.8" rx="4.7" ry="2.6" fill="#D93A22"/><ellipse cx="584.6" cy="432.5" rx="4.1" ry="3.5" fill="#F0573A"/><ellipse cx="559.9" cy="463.8" rx="5.4" ry="2.9" fill="#8E130C"/><ellipse cx="567.4" cy="454.9" rx="4.3" ry="2.4" fill="#8E130C"/><ellipse cx="547.9" cy="432.3" rx="5.5" ry="2" fill="#F0573A"/><ellipse cx="579.4" cy="442.1" rx="6.8" ry="2.7" fill="#C32519"/><ellipse cx="631.9" cy="431.3" rx="3.6" ry="3.4" fill="#C32519"/><ellipse cx="616.9" cy="430.3" rx="5.5" ry="2.8" fill="#D93A22"/><ellipse cx="633.5" cy="448.1" rx="4.7" ry="2.2" fill="#8E130C"/><ellipse cx="594.3" cy="434.2" rx="6" ry="2.6" fill="#D93A22"/><ellipse cx="627.3" cy="447.9" rx="4.2" ry="2.3" fill="#8E130C"/><ellipse cx="553.4" cy="443.2" rx="5.6" ry="2.9" fill="#8E130C"/><ellipse cx="569.7" cy="460.7" rx="3.8" ry="2" fill="#F0573A"/><ellipse cx="583.6" cy="434" rx="3.2" ry="2.4" fill="#C32519"/><ellipse cx="549.8" cy="429.5" rx="4.8" ry="2.5" fill="#C32519"/><ellipse cx="602.5" cy="460.9" rx="4.9" ry="2.5" fill="#F0573A"/><ellipse cx="605.8" cy="443.4" rx="2.4" ry="1.5" transform="rotate(79 605.8 443.4)" fill="#F8D684"/><ellipse cx="576" cy="462" rx="2.4" ry="1.5" transform="rotate(19 576 462)" fill="#F8D684"/><ellipse cx="588.6" cy="439.2" rx="2.4" ry="1.5" transform="rotate(11 588.6 439.2)" fill="#F8D684"/><ellipse cx="630.6" cy="452.5" rx="2.4" ry="1.5" transform="rotate(33 630.6 452.5)" fill="#F8D684"/><ellipse cx="620.6" cy="458.9" rx="2.4" ry="1.5" transform="rotate(90 620.6 458.9)" fill="#F8D684"/><ellipse cx="554" cy="443" rx="2.4" ry="1.5" transform="rotate(19 554 443)" fill="#F8D684"/><ellipse cx="627.9" cy="441" rx="2.4" ry="1.5" transform="rotate(7 627.9 441)" fill="#F8D684"/><ellipse cx="627.2" cy="446.6" rx="2.4" ry="1.5" transform="rotate(159 627.2 446.6)" fill="#F8D684"/><ellipse cx="608.3" cy="439.7" rx="2.4" ry="1.5" transform="rotate(3 608.3 439.7)" fill="#F8D684"/><ellipse cx="603.2" cy="428.9" rx="2.4" ry="1.5" transform="rotate(163 603.2 428.9)" fill="#F8D684"/><ellipse cx="556.9" cy="435.3" rx="2.4" ry="1.5" transform="rotate(106 556.9 435.3)" fill="#F8D684"/><ellipse cx="614.5" cy="440" rx="2.4" ry="1.5" transform="rotate(177 614.5 440)" fill="#F8D684"/><ellipse cx="600.6" cy="441.9" rx="2.4" ry="1.5" transform="rotate(138 600.6 441.9)" fill="#F8D684"/><ellipse cx="553.9" cy="453" rx="2.4" ry="1.5" transform="rotate(7 553.9 453)" fill="#F8D684"/><ellipse cx="575.2" cy="429.2" rx="2.4" ry="1.5" transform="rotate(5 575.2 429.2)" fill="#F8D684"/><ellipse cx="567.6" cy="451.1" rx="2.4" ry="1.5" transform="rotate(127 567.6 451.1)" fill="#F8D684"/><ellipse cx="619.3" cy="449.8" rx="2.4" ry="1.5" transform="rotate(124 619.3 449.8)" fill="#F8D684"/><ellipse cx="570" cy="426.4" rx="2.4" ry="1.5" transform="rotate(77 570 426.4)" fill="#F8D684"/><ellipse cx="559.5" cy="448" rx="2.4" ry="1.5" transform="rotate(132 559.5 448)" fill="#F8D684"/><ellipse cx="561.9" cy="458.6" rx="2.4" ry="1.5" transform="rotate(168 561.9 458.6)" fill="#F8D684"/><ellipse cx="633.4" cy="443.9" rx="2.4" ry="1.5" transform="rotate(61 633.4 443.9)" fill="#F8D684"/><ellipse cx="576.7" cy="450" rx="2.4" ry="1.5" transform="rotate(50 576.7 450)" fill="#F8D684"/>
<ellipse cx="574" cy="430" rx="20" ry="5.5" fill="#FF8C66" opacity=".75"/>
<ellipse cx="612" cy="434" rx="8" ry="3" fill="#FFB199" opacity=".7"/>
<path d="M528 460C548 476 636 476 658 460" fill="none" stroke="#E0461C" stroke-width="3" opacity=".55"/>
<path d="M530 478a1.6 1.6 0 1 0 .1 0ZM552 492a1.6 1.6 0 1 0 .1 0ZM580 499a1.6 1.6 0 1 0 .1 0ZM620 498a1.6 1.6 0 1 0 .1 0ZM650 489a1.6 1.6 0 1 0 .1 0ZM670 471a1.6 1.6 0 1 0 .1 0ZM540 487a1.6 1.6 0 1 0 .1 0ZM600 503a1.6 1.6 0 1 0 .1 0Z" fill="#706A64"/>
<g transform="translate(632 436) rotate(-28)">
<path d="M-6 -13C20 -15 50 -12 64 -9C74 -7 74 7 64 9C50 12 20 15 -6 13C-14 12 -14 -12 -6 -13Z" fill="#5A544E"/>
<path d="M-8 3C20 8 50 6 70 2C70 7 62 10 50 11C28 14 8 13 -6 13C-12 12 -12 6 -8 3Z" fill="#403B37"/>
<path d="M0 -8C24 -10 46 -8 62 -5" stroke="#8A837B" stroke-width="3" stroke-linecap="round" fill="none"/>
</g>
</g>
</g>
</svg>