<svg xmlns="http://www.w3.org/2000/svg" viewBox="0 0 800 600" width="800" height="600"><defs><radialGradient id="rg" cx=".38" cy=".3" r=".8"><stop offset="0" stop-color="#DE9C56"/><stop offset=".55" stop-color="#C47B39"/><stop offset="1" stop-color="#9E5C27"/></radialGradient></defs><rect width="800" height="600" fill="#FFE3D3"/><circle cx="400" cy="300" r="282" fill="#FCD3BD"/><ellipse cx="408" cy="340" rx="272" ry="190" fill="#101828" opacity=".1"/><ellipse cx="400" cy="318" rx="270" ry="190" fill="#FFFFFF" stroke="#E6E8EC" stroke-width="3"/><ellipse cx="400" cy="324" rx="212" ry="146" fill="#F5F6F8" stroke="#E6E8EC" stroke-width="4"/><path d="M168 268C205 190 300 146 400 142" fill="none" stroke="#FFFFFF" stroke-width="6" stroke-linecap="round" opacity=".9"/><g transform="translate(548 226) rotate(-16)"><path d="M95.2 0C96 3.1 88.4 6.1 88.5 9.7C88.6 13.3 97.3 18.4 95.9 21.4C94.6 24.5 83 25 80.4 28C77.9 30.9 82.7 36.6 80.6 39.4C78.4 42.2 71.1 42.4 67.8 44.7C64.4 47 63.9 51.1 60.6 53.2C57.3 55.2 51.4 54.6 48.1 56.9C44.7 59.2 44 65.5 40.3 67.1C36.6 68.8 30.4 66.7 25.8 67C21.3 67.3 17.3 69.1 13 69C8.7 68.8 4.3 66 0 66C-4.3 66 -8.7 68.8 -13 68.9C-17.3 69.1 -21.3 67.3 -25.9 67.1C-30.5 66.9 -37.3 69.8 -40.6 67.6C-43.8 65.4 -41.3 55.5 -45.5 53.9C-49.7 52.2 -61.7 59 -65.9 57.8C-70 56.6 -68 49.6 -70.7 46.6C-73.3 43.6 -79.9 43 -81.8 40C-83.7 37 -80.7 31.8 -81.8 28.4C-82.9 25.1 -88.3 23 -88.5 19.8C-88.7 16.5 -81.8 12.4 -83 9.1C-84.3 5.8 -95.9 3 -96 0C-96 -3 -84.7 -5.8 -83.5 -9.1C-82.3 -12.4 -89.6 -16.8 -88.8 -19.8C-87.9 -22.9 -80.4 -24.3 -78.4 -27.2C-76.3 -30.2 -78.4 -34.6 -76.5 -37.4C-74.6 -40.2 -69.2 -41.2 -66.8 -44.1C-64.4 -46.9 -65.1 -52.2 -62.3 -54.7C-59.4 -57.2 -53.6 -57.1 -49.9 -59C-46.1 -61 -43.9 -65.2 -39.8 -66.4C-35.8 -67.5 -29.8 -64.9 -25.4 -65.9C-21 -66.8 -17.9 -71.6 -13.6 -72.1C-9.4 -72.5 -4.5 -68.9 0 -68.8C4.5 -68.7 9.5 -72.7 13.6 -71.7C17.6 -70.8 19.7 -63.5 24.4 -63.2C29.1 -62.8 37.5 -70.2 41.8 -69.7C46.2 -69.2 46.9 -62.2 50.7 -60C54.6 -57.9 61.9 -59.5 64.9 -57C67.9 -54.5 66.4 -48.4 68.7 -45.3C71 -42.2 77.3 -41.6 78.9 -38.6C80.5 -35.6 76.5 -30.3 78.3 -27.2C80.1 -24.1 88.9 -23.1 89.8 -20.1C90.6 -17 82.7 -12.5 83.6 -9.1C84.5 -5.8 94.4 -3.1 95.2 0Z" fill="#101828" opacity=".1" transform="translate(5 9)"/><path d="M95.2 0C96 3.1 88.4 6.1 88.5 9.7C88.6 13.3 97.3 18.4 95.9 21.4C94.6 24.5 83 25 80.4 28C77.9 30.9 82.7 36.6 80.6 39.4C78.4 42.2 71.1 42.4 67.8 44.7C64.4 47 63.9 51.1 60.6 53.2C57.3 55.2 51.4 54.6 48.1 56.9C44.7 59.2 44 65.5 40.3 67.1C36.6 68.8 30.4 66.7 25.8 67C21.3 67.3 17.3 69.1 13 69C8.7 68.8 4.3 66 0 66C-4.3 66 -8.7 68.8 -13 68.9C-17.3 69.1 -21.3 67.3 -25.9 67.1C-30.5 66.9 -37.3 69.8 -40.6 67.6C-43.8 65.4 -41.3 55.5 -45.5 53.9C-49.7 52.2 -61.7 59 -65.9 57.8C-70 56.6 -68 49.6 -70.7 46.6C-73.3 43.6 -79.9 43 -81.8 40C-83.7 37 -80.7 31.8 -81.8 28.4C-82.9 25.1 -88.3 23 -88.5 19.8C-88.7 16.5 -81.8 12.4 -83 9.1C-84.3 5.8 -95.9 3 -96 0C-96 -3 -84.7 -5.8 -83.5 -9.1C-82.3 -12.4 -89.6 -16.8 -88.8 -19.8C-87.9 -22.9 -80.4 -24.3 -78.4 -27.2C-76.3 -30.2 -78.4 -34.6 -76.5 -37.4C-74.6 -40.2 -69.2 -41.2 -66.8 -44.1C-64.4 -46.9 -65.1 -52.2 -62.3 -54.7C-59.4 -57.2 -53.6 -57.1 -49.9 -59C-46.1 -61 -43.9 -65.2 -39.8 -66.4C-35.8 -67.5 -29.8 -64.9 -25.4 -65.9C-21 -66.8 -17.9 -71.6 -13.6 -72.1C-9.4 -72.5 -4.5 -68.9 0 -68.8C4.5 -68.7 9.5 -72.7 13.6 -71.7C17.6 -70.8 19.7 -63.5 24.4 -63.2C29.1 -62.8 37.5 -70.2 41.8 -69.7C46.2 -69.2 46.9 -62.2 50.7 -60C54.6 -57.9 61.9 -59.5 64.9 -57C67.9 -54.5 66.4 -48.4 68.7 -45.3C71 -42.2 77.3 -41.6 78.9 -38.6C80.5 -35.6 76.5 -30.3 78.3 -27.2C80.1 -24.1 88.9 -23.1 89.8 -20.1C90.6 -17 82.7 -12.5 83.6 -9.1C84.5 -5.8 94.4 -3.1 95.2 0Z" fill="#EA9A83"/><path d="M95.2 0C96 3.1 88.4 6.1 88.5 9.7C88.6 13.3 97.3 18.4 95.9 21.4C94.6 24.5 83 25 80.4 28C77.9 30.9 82.7 36.6 80.6 39.4C78.4 42.2 71.1 42.4 67.8 44.7C64.4 47 63.9 51.1 60.6 53.2C57.3 55.2 51.4 54.6 48.1 56.9C44.7 59.2 44 65.5 40.3 67.1C36.6 68.8 30.4 66.7 25.8 67C21.3 67.3 17.3 69.1 13 69C8.7 68.8 4.3 66 0 66C-4.3 66 -8.7 68.8 -13 68.9C-17.3 69.1 -21.3 67.3 -25.9 67.1C-30.5 66.9 -37.3 69.8 -40.6 67.6C-43.8 65.4 -41.3 55.5 -45.5 53.9C-49.7 52.2 -61.7 59 -65.9 57.8C-70 56.6 -68 49.6 -70.7 46.6C-73.3 43.6 -79.9 43 -81.8 40C-83.7 37 -80.7 31.8 -81.8 28.4C-82.9 25.1 -88.3 23 -88.5 19.8C-88.7 16.5 -81.8 12.4 -83 9.1C-84.3 5.8 -95.9 3 -96 0C-96 -3 -84.7 -5.8 -83.5 -9.1C-82.3 -12.4 -89.6 -16.8 -88.8 -19.8C-87.9 -22.9 -80.4 -24.3 -78.4 -27.2C-76.3 -30.2 -78.4 -34.6 -76.5 -37.4C-74.6 -40.2 -69.2 -41.2 -66.8 -44.1C-64.4 -46.9 -65.1 -52.2 -62.3 -54.7C-59.4 -57.2 -53.6 -57.1 -49.9 -59C-46.1 -61 -43.9 -65.2 -39.8 -66.4C-35.8 -67.5 -29.8 -64.9 -25.4 -65.9C-21 -66.8 -17.9 -71.6 -13.6 -72.1C-9.4 -72.5 -4.5 -68.9 0 -68.8C4.5 -68.7 9.5 -72.7 13.6 -71.7C17.6 -70.8 19.7 -63.5 24.4 -63.2C29.1 -62.8 37.5 -70.2 41.8 -69.7C46.2 -69.2 46.9 -62.2 50.7 -60C54.6 -57.9 61.9 -59.5 64.9 -57C67.9 -54.5 66.4 -48.4 68.7 -45.3C71 -42.2 77.3 -41.6 78.9 -38.6C80.5 -35.6 76.5 -30.3 78.3 -27.2C80.1 -24.1 88.9 -23.1 89.8 -20.1C90.6 -17 82.7 -12.5 83.6 -9.1C84.5 -5.8 94.4 -3.1 95.2 0Z" fill="#F7BAA3" transform="translate(-2 -4) scale(.97)"/><g fill="#FBD3C3"><path d="M15 -15.4C15.5 -11.6 13.8 -7.3 11.2 -3.4C8.6 0.5 5 6.2 -0.7 8.1C-6.4 9.9 -16.1 8.3 -23 7.8C-29.9 7.3 -36.6 6.9 -42.4 5C-48.1 3.2 -55 0.1 -57.5 -3.3C-60 -6.7 -57.4 -11.4 -57.3 -15.4C-57.1 -19.4 -58.9 -23.7 -56.6 -27.2C-54.3 -30.8 -48.8 -34.4 -43.2 -36.7C-37.6 -39.1 -29.1 -42.1 -23 -41.4C-16.9 -40.7 -11.7 -35.3 -6.5 -32.8C-1.3 -30.3 4.5 -29.2 8.1 -26.3C11.7 -23.4 14.5 -19.2 15 -15.4Z"/><path d="M53.1 8.4C53.1 11.4 53.1 14.7 51 17.3C48.9 19.8 44.6 22.9 40.4 23.8C36.2 24.8 30.1 23.6 25.8 23C21.4 22.5 18.2 21.5 14.4 20.4C10.6 19.3 5.3 18.4 2.9 16.4C0.6 14.4 1 11.3 0.4 8.4C-0.2 5.5 -2.6 1.7 -0.8 -0.9C1 -3.5 6.6 -5.8 11 -7.1C15.4 -8.5 21 -9.1 25.8 -9C30.6 -8.9 35.6 -7.9 39.8 -6.5C44.1 -5 48.8 -3 51.1 -0.5C53.3 2 53.1 5.4 53.1 8.4Z"/><path d="M10.8 25.2C11.4 27.6 12.6 30.7 11.1 33C9.5 35.2 5.4 37.2 1.7 38.6C-2 40.1 -7.1 42 -11 41.6C-14.9 41.2 -18.5 38 -21.6 36.4C-24.8 34.7 -28 33.6 -29.7 31.8C-31.5 29.9 -31.9 27.4 -31.9 25.2C-31.9 23 -31 20.9 -29.7 18.6C-28.4 16.4 -27.1 12.5 -24 11.5C-20.9 10.5 -15.2 12.4 -11 12.6C-6.9 12.7 -2 11.4 1.1 12.4C4.2 13.5 5.9 16.5 7.5 18.7C9.2 20.8 10.2 22.8 10.8 25.2Z"/></g><g fill="#E8957F" opacity=".75"><circle cx="6.5" cy="-38.6" r="4.8"/><circle cx="-61.8" cy="43.3" r="4.8"/><circle cx="39.8" cy="2.1" r="4.9"/><circle cx="-81.5" cy="14" r="3.5"/><circle cx="61.3" cy="24.7" r="4.6"/><circle cx="-2.1" cy="20.9" r="3.3"/><circle cx="73" cy="-10.6" r="2.7"/><circle cx="1.6" cy="22.5" r="2.6"/><circle cx="11.4" cy="-24" r="4"/><circle cx="-34" cy="11.1" r="4.4"/><circle cx="47.3" cy="40" r="2.7"/><circle cx="-33.4" cy="16.2" r="3.2"/><circle cx="75.8" cy="-8.5" r="3.3"/><circle cx="30.2" cy="-17.6" r="3.5"/><circle cx="42.4" cy="-39" r="2.7"/><circle cx="40.1" cy="0" r="3.1"/><circle cx="7.9" cy="-34.6" r="3.2"/><circle cx="23.8" cy="10.6" r="4"/><circle cx="3.9" cy="52" r="3.4"/><circle cx="-78.5" cy="20.3" r="3.8"/><circle cx="-69.4" cy="-25.1" r="2.9"/><circle cx="46.8" cy="52.7" r="4.7"/><circle cx="1.1" cy="30.1" r="4.5"/><circle cx="36" cy="-8.5" r="5.1"/><circle cx="49.7" cy="-31.8" r="3.6"/><circle cx="14.3" cy="9.7" r="5.1"/><circle cx="6.2" cy="56" r="3.1"/><circle cx="30.3" cy="-42.6" r="3.2"/><circle cx="33.5" cy="50.9" r="2.6"/><circle cx="9.6" cy="49.8" r="4.8"/></g><g fill="#FFEAE1"><circle cx="5" cy="-41.4" r="3.9"/><circle cx="-63.3" cy="40.5" r="3.9"/><circle cx="38.3" cy="-0.7" r="4.1"/><circle cx="-83" cy="11.2" r="2.9"/><circle cx="59.8" cy="21.9" r="3.8"/><circle cx="-3.6" cy="18.1" r="2.7"/><circle cx="71.5" cy="-13.4" r="2.2"/><circle cx="0.1" cy="19.7" r="2.1"/><circle cx="9.9" cy="-26.8" r="3.3"/><circle cx="-35.5" cy="8.3" r="3.6"/><circle cx="45.8" cy="37.2" r="2.2"/><circle cx="-34.9" cy="13.4" r="2.6"/><circle cx="74.3" cy="-11.3" r="2.7"/><circle cx="28.7" cy="-20.4" r="2.9"/><circle cx="40.9" cy="-41.8" r="2.2"/><circle cx="38.6" cy="-2.8" r="2.6"/><circle cx="6.4" cy="-37.4" r="2.6"/><circle cx="22.3" cy="7.8" r="3.3"/><circle cx="2.4" cy="49.2" r="2.8"/><circle cx="-80" cy="17.5" r="3.1"/><circle cx="-70.9" cy="-27.9" r="2.4"/><circle cx="45.3" cy="49.9" r="3.8"/><circle cx="-0.4" cy="27.3" r="3.7"/><circle cx="34.5" cy="-11.3" r="4.1"/><circle cx="48.2" cy="-34.6" r="2.9"/><circle cx="12.8" cy="6.9" r="4.2"/><circle cx="4.7" cy="53.2" r="2.6"/><circle cx="28.8" cy="-45.4" r="2.6"/><circle cx="32" cy="48.1" r="2.1"/><circle cx="8.1" cy="47" r="3.9"/></g></g><g transform="translate(586 322) rotate(14)"><path d="M86.9 0C88.2 2.8 81 5.8 80.3 9C79.7 12.1 85.4 16.5 83.1 18.9C80.9 21.4 69 21 66.9 23.7C64.8 26.4 72.2 32.7 70.7 35.2C69.2 37.7 60.5 36.6 57.8 38.8C55.2 41.1 57.6 47.3 54.7 48.9C51.7 50.4 43.5 46.9 40 48.2C36.4 49.5 36.5 55.3 33.4 56.7C30.4 58.2 25.3 56.2 21.6 57C18 57.9 15.1 61.5 11.5 61.9C7.9 62.4 3.8 59.7 0 59.5C-3.8 59.3 -7.8 61.4 -11.2 60.6C-14.7 59.8 -16.7 54.8 -20.7 54.7C-24.7 54.6 -31.9 60.8 -35.3 60C-38.8 59.2 -38.2 51.7 -41.4 49.9C-44.6 48 -51.5 50.4 -54.6 48.8C-57.6 47.2 -57.5 42.6 -59.9 40.2C-62.3 37.8 -67.8 37.1 -68.9 34.3C-70.1 31.6 -64.5 26.2 -66.7 23.6C-68.9 21 -80.5 21.2 -82.2 18.7C-84 16.2 -76.8 11.7 -77.2 8.6C-77.6 5.5 -84.5 2.9 -84.6 0C-84.6 -2.9 -77.6 -5.5 -77.5 -8.6C-77.3 -11.8 -85.2 -16.4 -83.8 -19.1C-82.4 -21.7 -71.1 -21.7 -69.1 -24.5C-67.1 -27.3 -73.9 -33.5 -71.9 -35.8C-70 -38.2 -60.3 -36.4 -57.5 -38.6C-54.6 -40.8 -57.4 -47 -54.9 -49.1C-52.4 -51.2 -46 -49.9 -42.5 -51.3C-39 -52.7 -37.5 -56.9 -33.9 -57.5C-30.3 -58.1 -24.4 -53.7 -20.7 -54.7C-17 -55.7 -15.3 -62.5 -11.8 -63.6C-8.4 -64.8 -4 -61.2 0 -61.3C4 -61.4 8.4 -65.1 12 -64.4C15.6 -63.7 17.8 -57.9 21.6 -57.1C25.5 -56.2 32 -61 35.1 -59.5C38.2 -58.1 37.3 -50.6 40.2 -48.5C43.1 -46.4 49.8 -48.8 52.6 -47.1C55.5 -45.4 53.9 -40.2 57.2 -38.4C60.5 -36.6 70.6 -38.4 72.3 -36C74.1 -33.6 67.1 -27.1 67.8 -24C68.5 -20.9 75.7 -20.1 76.6 -17.4C77.4 -14.8 71.2 -11 72.9 -8.1C74.6 -5.2 85.7 -2.8 86.9 0Z" fill="#101828" opacity=".1" transform="translate(5 9)"/><path d="M86.9 0C88.2 2.8 81 5.8 80.3 9C79.7 12.1 85.4 16.5 83.1 18.9C80.9 21.4 69 21 66.9 23.7C64.8 26.4 72.2 32.7 70.7 35.2C69.2 37.7 60.5 36.6 57.8 38.8C55.2 41.1 57.6 47.3 54.7 48.9C51.7 50.4 43.5 46.9 40 48.2C36.4 49.5 36.5 55.3 33.4 56.7C30.4 58.2 25.3 56.2 21.6 57C18 57.9 15.1 61.5 11.5 61.9C7.9 62.4 3.8 59.7 0 59.5C-3.8 59.3 -7.8 61.4 -11.2 60.6C-14.7 59.8 -16.7 54.8 -20.7 54.7C-24.7 54.6 -31.9 60.8 -35.3 60C-38.8 59.2 -38.2 51.7 -41.4 49.9C-44.6 48 -51.5 50.4 -54.6 48.8C-57.6 47.2 -57.5 42.6 -59.9 40.2C-62.3 37.8 -67.8 37.1 -68.9 34.3C-70.1 31.6 -64.5 26.2 -66.7 23.6C-68.9 21 -80.5 21.2 -82.2 18.7C-84 16.2 -76.8 11.7 -77.2 8.6C-77.6 5.5 -84.5 2.9 -84.6 0C-84.6 -2.9 -77.6 -5.5 -77.5 -8.6C-77.3 -11.8 -85.2 -16.4 -83.8 -19.1C-82.4 -21.7 -71.1 -21.7 -69.1 -24.5C-67.1 -27.3 -73.9 -33.5 -71.9 -35.8C-70 -38.2 -60.3 -36.4 -57.5 -38.6C-54.6 -40.8 -57.4 -47 -54.9 -49.1C-52.4 -51.2 -46 -49.9 -42.5 -51.3C-39 -52.7 -37.5 -56.9 -33.9 -57.5C-30.3 -58.1 -24.4 -53.7 -20.7 -54.7C-17 -55.7 -15.3 -62.5 -11.8 -63.6C-8.4 -64.8 -4 -61.2 0 -61.3C4 -61.4 8.4 -65.1 12 -64.4C15.6 -63.7 17.8 -57.9 21.6 -57.1C25.5 -56.2 32 -61 35.1 -59.5C38.2 -58.1 37.3 -50.6 40.2 -48.5C43.1 -46.4 49.8 -48.8 52.6 -47.1C55.5 -45.4 53.9 -40.2 57.2 -38.4C60.5 -36.6 70.6 -38.4 72.3 -36C74.1 -33.6 67.1 -27.1 67.8 -24C68.5 -20.9 75.7 -20.1 76.6 -17.4C77.4 -14.8 71.2 -11 72.9 -8.1C74.6 -5.2 85.7 -2.8 86.9 0Z" fill="#EA9A83"/><path d="M86.9 0C88.2 2.8 81 5.8 80.3 9C79.7 12.1 85.4 16.5 83.1 18.9C80.9 21.4 69 21 66.9 23.7C64.8 26.4 72.2 32.7 70.7 35.2C69.2 37.7 60.5 36.6 57.8 38.8C55.2 41.1 57.6 47.3 54.7 48.9C51.7 50.4 43.5 46.9 40 48.2C36.4 49.5 36.5 55.3 33.4 56.7C30.4 58.2 25.3 56.2 21.6 57C18 57.9 15.1 61.5 11.5 61.9C7.9 62.4 3.8 59.7 0 59.5C-3.8 59.3 -7.8 61.4 -11.2 60.6C-14.7 59.8 -16.7 54.8 -20.7 54.7C-24.7 54.6 -31.9 60.8 -35.3 60C-38.8 59.2 -38.2 51.7 -41.4 49.9C-44.6 48 -51.5 50.4 -54.6 48.8C-57.6 47.2 -57.5 42.6 -59.9 40.2C-62.3 37.8 -67.8 37.1 -68.9 34.3C-70.1 31.6 -64.5 26.2 -66.7 23.6C-68.9 21 -80.5 21.2 -82.2 18.7C-84 16.2 -76.8 11.7 -77.2 8.6C-77.6 5.5 -84.5 2.9 -84.6 0C-84.6 -2.9 -77.6 -5.5 -77.5 -8.6C-77.3 -11.8 -85.2 -16.4 -83.8 -19.1C-82.4 -21.7 -71.1 -21.7 -69.1 -24.5C-67.1 -27.3 -73.9 -33.5 -71.9 -35.8C-70 -38.2 -60.3 -36.4 -57.5 -38.6C-54.6 -40.8 -57.4 -47 -54.9 -49.1C-52.4 -51.2 -46 -49.9 -42.5 -51.3C-39 -52.7 -37.5 -56.9 -33.9 -57.5C-30.3 -58.1 -24.4 -53.7 -20.7 -54.7C-17 -55.7 -15.3 -62.5 -11.8 -63.6C-8.4 -64.8 -4 -61.2 0 -61.3C4 -61.4 8.4 -65.1 12 -64.4C15.6 -63.7 17.8 -57.9 21.6 -57.1C25.5 -56.2 32 -61 35.1 -59.5C38.2 -58.1 37.3 -50.6 40.2 -48.5C43.1 -46.4 49.8 -48.8 52.6 -47.1C55.5 -45.4 53.9 -40.2 57.2 -38.4C60.5 -36.6 70.6 -38.4 72.3 -36C74.1 -33.6 67.1 -27.1 67.8 -24C68.5 -20.9 75.7 -20.1 76.6 -17.4C77.4 -14.8 71.2 -11 72.9 -8.1C74.6 -5.2 85.7 -2.8 86.9 0Z" fill="#F7BAA3" transform="translate(-2 -4) scale(.97)"/><g fill="#FBD3C3"><path d="M18.7 -13.6C19.6 -9.9 17.1 -5 13.8 -1.5C10.5 1.9 4.8 6 -0.8 6.9C-6.5 7.9 -13.9 4.4 -20 4.1C-26.1 3.7 -32.6 6.3 -37.4 5C-42.1 3.7 -45.5 -0.4 -48.3 -3.5C-51.1 -6.6 -54.5 -10.4 -54 -13.6C-53.5 -16.8 -48.4 -20 -45.2 -22.7C-42.1 -25.3 -39.1 -27.8 -34.9 -29.7C-30.7 -31.6 -25 -34 -20 -34.1C-15 -34.1 -9.7 -31.6 -4.9 -29.9C-0.1 -28.2 4.7 -26.6 8.6 -23.9C12.6 -21.2 17.9 -17.4 18.7 -13.6Z"/><path d="M48.2 7.4C48.3 10.2 48.3 13.9 45.7 15.8C43.2 17.7 36.9 17.3 33 18.9C29.1 20.4 26 25 22.4 25C18.8 25 15.4 20.5 11.7 18.9C8 17.3 2 17.2 0.3 15.3C-1.3 13.4 2 10.1 1.9 7.4C1.8 4.8 -2 1.2 -0.3 -0.7C1.4 -2.6 8.1 -2.5 11.9 -3.8C15.7 -5.1 18.5 -8.1 22.4 -8.5C26.3 -9 31.6 -7.8 35.4 -6.5C39.2 -5.2 43 -3 45.2 -0.7C47.3 1.6 48.1 4.7 48.2 7.4Z"/><path d="M10.3 22.3C10.6 24.7 12.5 27.7 11.2 29.8C9.8 31.9 5.5 34.2 2.1 34.9C-1.4 35.6 -5.7 33.9 -9.6 33.9C-13.5 33.9 -18.2 35.8 -21.4 35C-24.5 34.2 -27.6 31.2 -28.5 29.1C-29.4 27 -26.6 24.7 -27 22.3C-27.3 19.9 -31.9 16.5 -30.6 14.8C-29.2 13.1 -22.6 12.9 -19.1 12.1C-15.6 11.4 -12.9 10.4 -9.6 10.3C-6.3 10.2 -2.6 10.6 0.5 11.5C3.6 12.3 7.4 13.9 9 15.7C10.6 17.5 9.9 20 10.3 22.3Z"/></g><g fill="#E8957F" opacity=".75"><circle cx="38.6" cy="9.3" r="4"/><circle cx="19.2" cy="-27.7" r="3.4"/><circle cx="-8.8" cy="32.6" r="4.6"/><circle cx="-34.7" cy="-6.8" r="2.7"/><circle cx="14.1" cy="-45" r="4.7"/><circle cx="5.1" cy="44.1" r="5"/><circle cx="-58.9" cy="-28.6" r="2.9"/><circle cx="18.2" cy="-0.1" r="3.6"/><circle cx="66.6" cy="9.5" r="4.3"/><circle cx="66.3" cy="-6.4" r="5.1"/><circle cx="-70.2" cy="-11.6" r="4.5"/><circle cx="-40.4" cy="48.4" r="3.5"/><circle cx="8.1" cy="16.8" r="3.7"/><circle cx="24.4" cy="54.2" r="5.1"/><circle cx="6" cy="20" r="3.9"/><circle cx="27.3" cy="38.9" r="4.7"/><circle cx="0.1" cy="39.1" r="4.9"/><circle cx="-39.6" cy="13.4" r="4.9"/><circle cx="28.2" cy="-47.8" r="4.3"/><circle cx="-51.4" cy="26.8" r="4.7"/><circle cx="-22" cy="-19.5" r="3.2"/><circle cx="-53.6" cy="29" r="4"/><circle cx="-62.8" cy="-14" r="2.7"/><circle cx="-27.9" cy="-22.2" r="4"/><circle cx="19.8" cy="-22.5" r="5.1"/><circle cx="49.7" cy="22.3" r="3.9"/><circle cx="6.2" cy="44.6" r="3.7"/><circle cx="-58.4" cy="17.1" r="2.4"/><circle cx="-45.9" cy="37.3" r="2.8"/><circle cx="23.4" cy="-17.1" r="4.3"/></g><g fill="#FFEAE1"><circle cx="37.1" cy="6.5" r="3.3"/><circle cx="17.7" cy="-30.5" r="2.8"/><circle cx="-10.3" cy="29.8" r="3.8"/><circle cx="-36.2" cy="-9.6" r="2.2"/><circle cx="12.6" cy="-47.8" r="3.9"/><circle cx="3.6" cy="41.3" r="4.1"/><circle cx="-60.4" cy="-31.4" r="2.4"/><circle cx="16.7" cy="-2.9" r="2.9"/><circle cx="65.1" cy="6.7" r="3.5"/><circle cx="64.8" cy="-9.2" r="4.1"/><circle cx="-71.7" cy="-14.4" r="3.7"/><circle cx="-41.9" cy="45.6" r="2.8"/><circle cx="6.6" cy="14" r="3"/><circle cx="22.9" cy="51.4" r="4.2"/><circle cx="4.5" cy="17.2" r="3.2"/><circle cx="25.8" cy="36.1" r="3.8"/><circle cx="-1.4" cy="36.3" r="4"/><circle cx="-41.1" cy="10.6" r="4"/><circle cx="26.7" cy="-50.6" r="3.5"/><circle cx="-52.9" cy="24" r="3.9"/><circle cx="-23.5" cy="-22.3" r="2.6"/><circle cx="-55.1" cy="26.2" r="3.2"/><circle cx="-64.3" cy="-16.8" r="2.2"/><circle cx="-29.4" cy="-25" r="3.3"/><circle cx="18.3" cy="-25.3" r="4.2"/><circle cx="48.2" cy="19.5" r="3.2"/><circle cx="4.7" cy="41.8" r="3"/><circle cx="-59.9" cy="14.3" r="2"/><circle cx="-47.4" cy="34.5" r="2.3"/><circle cx="21.9" cy="-19.9" r="3.5"/></g></g><ellipse cx="380" cy="396" rx="168" ry="30" fill="#101828" opacity=".13"/><path d="M536.8 306C536.7 313.9 533.7 320.4 531.6 327.5C529.4 334.5 528.6 342 524 348.3C519.4 354.6 511.2 360 503.8 365.2C496.4 370.4 488 374.8 479.6 379.4C471.2 384 462.9 388.7 453.4 392.9C443.9 397.1 433.9 402 422.7 404.5C411.5 407 398.5 407.3 386.4 407.8C374.2 408.3 361.4 408.9 349.7 407.5C337.9 406.1 327.2 401.8 315.9 399.5C304.6 397.2 292 396.9 281.8 393.8C271.6 390.6 263 385.3 254.7 380.6C246.4 375.8 238.6 370.8 232 365.3C225.5 359.7 220 353.7 215.2 347.4C210.4 341.1 207.2 334.6 203.1 327.7C199.1 320.8 192.1 314.1 190.9 306C189.6 297.9 193.1 288.2 195.9 278.9C198.7 269.5 202.5 259.3 207.5 249.7C212.5 240.1 217.9 229.8 225.9 221.4C233.9 212.9 245.8 206.5 255.4 199.3C264.9 192.1 273.3 184.5 283.1 178.3C293 172 303.3 165.7 314.4 161.6C325.5 157.4 337.7 154.8 349.7 153.2C361.7 151.7 374.3 151.2 386.4 152.3C398.6 153.4 411.7 155.2 422.6 159.7C433.4 164.3 441.3 173.5 451.5 179.7C461.7 185.9 474.4 189.9 483.9 197C493.5 204 501.9 213 508.8 221.9C515.7 230.9 521.3 241 525.2 250.6C529.1 260.3 530.5 270.7 532.4 279.9C534.4 289.1 537 298.1 536.8 306Z" fill="url(#rg)"/><path d="M397 149l-3 6M365 149l2 6M342 151l-2 5M315 160l-5 3M428 164l5 0M364 161l-2 6M383 165l5 1M433 164l3 4M425 168l-4 0M421 167l-3 5M416 168l3 5M437 171l6 0M311 171l-1 4M417 171l3 5M427 178l2 6M458 180l-1 5M391 186l6 1M266 186l3 4M358 186l-5 4M350 197l-6 0M353 195l0 6M303 199l5 2M320 201l-4 2M257 201l0 6M292 206l-6 2M243 205l1 6M264 210l4 2M283 213l-5 1M290 213l-2 4M287 214l3 3M283 215l4 4M324 216l5 2M325 217l-3 3M307 221l6 0M312 220l4 1M372 222l-6 2M334 224l3 4M362 226l-5 2M319 234l2 5M278 237l-4 2M213 239l-4 4M239 241l-3 3M279 243l1 5M227 246l-5 1M233 246l4 3M283 248l-4 2M264 248l3 3M265 256l2 4M271 260l0 5M265 261l4 4M198 266l4 4M230 267l1 5M238 269l-3 4M195 270l4 2M205 276l-3 5M202 301l-3 5" stroke="#F7D7A6" stroke-width="6" stroke-linecap="round" fill="none"/><path d="M383 151l-6 2M375 151l0 4M355 153l5 1M335 155l5 3M372 157l-1 5M297 165l6 1M424 164l3 5M291 172l6 0M335 174l2 5M281 178l4 1M452 177l-1 5M354 180l4 2M317 180l3 4M276 180l4 3M283 182l-6 1M385 180l2 5M285 183l-4 2M348 184l3 4M413 185l3 5M380 188l-4 1M377 190l-1 6M367 195l3 3M259 195l1 5M346 196l0 4M341 197l-1 5M253 198l3 5M354 203l3 4M328 204l2 5M368 207l-2 4M329 208l-3 3M373 211l-4 1M332 212l3 4M276 214l-1 4M339 217l1 4M274 216l-1 6M224 228l-4 0M297 229l3 4M215 233l-1 4M278 242l-1 4M289 243l-2 4M223 245l0 6M240 254l-2 5M285 260l-5 3M224 263l-6 1M261 266l3 4M248 276l2 5M197 276l1 6M228 282l-4 2M250 282l-6 2M220 283l1 6M230 294l-4 1M191 295l-2 6M190 299l4 3M195 304l-5 2" stroke="#EBB16D" stroke-width="6" stroke-linecap="round" fill="none"/><path d="M404 150l-3 5M379 151l-5 3M419 158l-6 2M370 162l4 2M313 162l4 2M287 175l3 3M270 186l5 3M411 187l-3 5M277 189l-4 1M306 189l-4 1M309 189l6 2M347 191l5 3M357 192l-6 1M281 193l-4 1M265 193l-6 2M369 199l5 2M246 202l5 0M298 202l3 4M398 203l5 2M371 203l-2 4M383 205l-2 5M247 212l6 0M237 210l-1 5M297 210l0 5M365 211l-2 4M272 214l-2 4M234 215l-3 4M262 218l0 5M262 219l-3 3M330 220l5 2M227 219l-1 6M352 222l-4 1M245 223l-5 0M279 224l-5 2M275 228l5 1M354 228l4 2M354 230l-5 1M353 231l-5 0M300 229l-1 6M308 234l-3 3M258 233l-1 6M222 236l5 3M313 235l-1 6M321 240l4 4M335 242l-4 5M296 246l5 1M304 246l-4 4M258 248l-4 1M208 247l-3 5M220 256l-4 5M285 256l1 5M277 263l6 1M232 265l1 4M252 266l3 3M249 267l-2 5M241 271l4 1M232 273l-1 5M193 287l-3 3M200 299l-3 3M208 302l-4 4" stroke="#E19D58" stroke-width="6" stroke-linecap="round" fill="none"/><path d="M363 151l4 2M375 151l-5 3M389 151l-2 4M348 151l3 6M364 153l-2 3M382 153l3 5M412 155l-5 1M327 153l-2 5M420 158l5 2M319 160l4 0M363 160l-3 5M312 163l-6 3M364 162l2 5M310 170l4 3M446 172l2 6M357 176l2 4M285 181l-1 5M313 185l-3 5M423 187l6 1M364 194l-6 0M252 198l4 2M365 198l4 3M278 202l4 2M283 205l5 0M308 208l-5 2M339 209l0 5M380 213l-4 2M231 214l-2 6M232 215l1 6M237 218l5 0M274 221l5 1M307 223l5 1M300 222l2 5M237 224l5 4M220 226l3 5M256 229l-1 5M325 237l5 1M321 237l2 4M224 252l-1 4M199 255l6 1M205 255l5 3M287 260l2 5M201 260l0 6M244 265l1 5M221 268l-3 4M217 269l-3 5M254 276l2 5M243 282l-4 1M210 288l-5 0M202 292l0 6M201 296l-2 4" stroke="#F3C98E" stroke-width="6" stroke-linecap="round" fill="none"/><path d="M464 186l3 3M462 189l-2 5M452 194l-4 3M432 202l5 1M420 204l6 0M431 206l5 1M503 211l-3 2M427 215l-4 5M418 216l-5 3M484 216l1 4M402 219l-4 2M385 221l6 1M501 227l-5 2M461 226l2 4M393 231l1 4M457 235l2 6M404 241l-2 4M487 245l6 2M417 244l-5 4M527 249l-5 4M527 251l-4 4M521 255l5 1M323 256l-4 2M416 254l-1 6M388 255l2 4M402 256l3 2M330 256l-2 5M451 259l4 4M462 261l-5 3M432 264l3 4M453 266l-1 4M347 267l4 3M389 268l-3 4M329 270l5 1M442 270l5 2M420 271l-1 4M294 274l4 3M321 277l-3 3M439 284l4 3M436 286l5 1M357 285l3 4M407 286l4 3M266 291l5 1M239 292l-4 2M368 293l1 5M448 299l-4 3M297 304l6 1M221 305l4 4M338 306l3 5M376 307l3 3M298 308l4 3M376 318l-5 1M218 317l2 6M201 318l-5 3M297 320l5 3M285 323l-4 4M320 324l-4 3M205 329l-4 1M329 330l-4 4M210 332l-4 4M343 334l6 2M373 336l6 1M360 334l0 5M279 338l3 3M248 338l-5 4M297 351l-4 2M220 352l2 6M264 356l5 3M229 358l-3 5M269 362l4 1M278 362l6 1M247 363l-6 2M325 363l2 4M309 367l-3 4M239 369l-4 0M296 372l4 2M318 374l-5 2" stroke="#DB9852" stroke-width="6" stroke-linecap="round" fill="none"/><path d="M469 187l4 4M482 195l1 5M488 198l3 3M449 200l-3 3M448 203l6 2M473 207l-2 5M498 220l-5 3M511 222l-6 3M393 221l2 6M484 225l2 4M414 225l3 4M432 228l1 5M423 229l-4 5M455 230l2 4M399 238l-5 0M352 239l-1 5M477 241l6 2M363 253l5 1M378 253l-6 2M432 256l-5 0M490 258l-6 2M316 261l-1 5M414 261l2 4M467 264l5 3M315 265l4 2M300 265l3 4M385 268l5 2M521 269l0 5M501 269l0 5M453 269l-1 6M528 272l4 2M337 273l6 2M394 273l6 1M317 273l-4 2M295 273l-5 3M417 274l-3 4M269 277l4 5M507 276l2 6M488 279l-4 2M489 279l5 3M499 280l5 4M332 281l-2 4M363 284l4 2M324 286l-6 2M411 289l5 2M306 289l-2 4M472 291l3 4M236 291l4 4M327 300l6 1M340 299l0 5M262 306l1 5M249 307l5 2M269 306l-3 5M275 309l-4 2M358 309l3 4M439 310l0 4M276 312l5 2M262 315l-6 1M263 317l0 6M344 322l-3 3M316 323l-3 3M340 327l2 5M215 332l-4 2M337 339l5 3M347 346l-4 4M309 353l-1 4M319 359l-4 1M251 363l-1 5M266 367l-2 4M259 383l4 1" stroke="#E6A965" stroke-width="6" stroke-linecap="round" fill="none"/><path d="M474 189l-3 3M454 198l-3 4M446 200l-2 5M452 202l4 2M494 205l6 2M430 204l-2 4M470 212l-6 1M456 217l-4 0M390 216l1 6M475 219l3 3M445 219l-1 5M513 225l-3 3M435 227l-6 2M503 233l3 3M504 237l5 3M482 238l-3 5M524 242l0 5M390 242l1 6M416 247l4 0M427 248l-5 3M418 249l1 4M371 252l-4 0M470 252l-1 6M334 255l-3 3M394 257l5 0M304 265l-4 0M486 266l-3 3M409 265l2 5M486 265l-2 5M423 270l-4 1M473 273l2 4M377 275l-5 2M512 276l-1 5M519 279l-4 2M461 279l-4 2M296 278l0 6M372 279l0 5M273 280l-5 4M341 282l3 4M251 283l5 3M407 283l1 4M259 284l0 6M330 286l-1 5M468 286l-2 4M333 288l-2 5M487 289l2 5M402 293l-6 2M370 293l-3 4M349 294l4 2M316 298l-4 3M455 298l-4 4M355 298l-5 4M452 301l-4 2M354 301l4 4M279 301l1 6M337 308l5 4M213 310l-6 3M437 312l4 1M400 317l5 3M413 320l-5 3M387 319l5 4M420 322l-4 3M224 322l3 4M397 330l5 3M359 328l0 6M321 335l5 4M291 344l-5 2M297 348l4 2M270 352l-5 1M261 353l-5 4M280 353l-2 5M259 355l-3 2M340 356l-3 3M330 356l-2 4M248 358l-3 6M334 365l-6 2M231 365l6 2M237 367l3 3M244 375l4 1M254 376l2 5M300 378l3 4M267 384l-1 6M274 393l5 0" stroke="#CB853F" stroke-width="6" stroke-linecap="round" fill="none"/><path d="M478 189l-3 6M484 195l-3 3M431 198l4 2M459 204l6 0M453 202l-2 6M488 205l-3 3M423 205l-4 2M483 211l4 1M448 212l-1 6M507 213l-1 5M482 218l5 3M395 219l-5 3M479 224l3 4M450 225l2 5M392 226l0 6M490 228l-5 2M453 228l-6 2M495 228l-6 2M423 231l4 1M413 231l3 3M407 232l-5 2M521 235l-4 1M372 235l-4 2M405 238l4 2M492 238l-1 5M375 239l-2 5M349 241l4 2M355 242l5 3M428 247l-5 2M380 247l3 4M394 248l-3 5M425 251l5 3M526 256l3 4M414 259l-3 5M323 261l-2 5M312 263l-5 1M296 262l0 5M531 262l0 5M435 264l3 3M516 264l2 5M517 268l2 4M456 270l-1 6M429 272l0 4M269 275l5 1M456 275l2 4M411 279l5 1M358 280l-4 3M483 286l2 5M336 290l0 4M478 299l-4 0M407 299l-5 1M226 301l-3 3M358 300l-2 6M321 303l-6 2M322 302l-4 4M277 305l-4 3M321 304l-3 5M294 308l2 4M196 311l-4 4M239 313l-2 4M305 313l3 5M198 315l-2 3M372 322l-6 1M227 322l-4 1M223 321l2 4M259 322l-3 4M223 323l-4 2M371 322l3 6M374 325l-6 0M250 328l4 2M219 329l-4 4M365 333l5 2M265 337l-5 1M372 337l1 4M260 337l-4 4M212 338l-2 4M254 339l-4 5M313 340l-1 5M217 343l0 6M242 343l0 5M283 343l-3 6M333 351l2 4M251 358l1 6M235 361l-3 3M250 363l-5 4M321 373l-5 1" stroke="#BC7535" stroke-width="6" stroke-linecap="round" fill="none"/><path d="M529 280l6 3M517 286l-6 0M526 291l3 4M536 304l4 3M467 316l-4 4M494 319l-3 5M481 326l-1 5M404 335l6 0M496 333l1 5M429 337l4 5M472 340l6 1M395 340l-3 3M469 342l3 6M385 343l-4 5M525 347l-5 3M482 352l5 0M478 353l-3 4M374 360l6 0M380 360l0 5M410 363l-6 2M390 368l-5 1M337 370l-2 5M454 370l-3 5M340 372l1 6M480 374l0 6M308 377l5 1M444 379l-5 4M440 379l-2 5M312 385l-5 1M438 389l5 1M279 392l3 4M401 394l-5 1M426 395l6 0M445 394l5 1M370 394l4 3M400 395l-6 0M303 396l-3 2M421 399l-4 0M436 398l1 4M419 399l-6 3M431 400l1 5M406 402l1 5M417 404l1 5M404 407l-4 0M365 405l-1 5M403 406l-4 1M372 408l-4 2M382 409l-5 2" stroke="#9E5D28" stroke-width="6" stroke-linecap="round" fill="none"/><path d="M538 287l-5 3M526 291l6 1M479 307l5 3M534 312l1 6M516 317l-2 4M449 319l-3 4M441 322l-5 2M522 322l-5 1M458 325l4 2M459 324l2 5M530 326l2 4M413 331l-2 6M411 343l-5 0M454 361l-3 3M388 362l1 6M424 364l3 4M506 366l-5 1M424 364l1 5M419 368l-3 3M498 370l-4 1M419 375l-4 2M487 374l-2 4M443 374l-2 4M368 377l-4 2M368 376l2 5M472 377l2 5M474 380l3 3M342 387l3 3M377 386l1 6M444 390l4 1M446 390l6 1M383 390l5 3M326 390l-4 4M318 390l-3 5M342 391l1 4M408 395l-5 0M399 395l-2 5M342 399l-4 1M438 400l-6 1M426 401l-5 3M390 403l-6 2M354 403l-1 4M333 403l-2 5M379 404l-2 4M344 405l-3 2M348 405l2 5M358 407l4 2" stroke="#BA7433" stroke-width="6" stroke-linecap="round" fill="none"/><path d="M507 289l3 5M489 291l0 5M533 295l4 5M510 297l-4 2M506 299l-4 4M463 303l2 6M524 315l-5 2M518 314l-1 5M499 318l-6 1M536 319l-4 0M513 320l-4 3M462 328l-5 3M526 332l2 5M417 339l1 4M467 339l1 4M525 341l4 1M511 341l-5 3M417 342l-4 4M478 350l0 4M429 352l-4 2M517 354l5 4M379 353l2 6M390 355l0 6M422 356l-1 6M486 359l-1 5M343 361l4 1M504 362l-2 4M365 365l-1 6M425 367l-2 4M453 371l0 4M357 372l3 4M481 375l-4 2M338 375l5 3M311 375l2 5M360 379l-6 2M426 379l3 3M330 381l6 1M464 383l3 4M382 384l0 5M327 387l3 3M453 388l-2 6M398 389l-2 5M346 389l-1 5M393 390l1 6M412 394l1 5M292 394l-1 6M313 397l3 4M322 400l6 1M342 401l-6 1M367 399l4 5M375 401l1 5M394 404l-2 5M358 407l0 5" stroke="#AE692E" stroke-width="6" stroke-linecap="round" fill="none"/><path d="M529 297l-1 4M483 306l-3 2M469 305l-2 6M479 321l3 3M443 321l0 5M452 324l-5 3M504 331l-2 4M415 333l-2 5M414 336l2 6M432 337l5 4M501 338l-1 5M475 343l-6 2M525 343l-4 3M474 345l-6 0M437 351l6 1M476 349l0 6M381 351l-4 4M396 353l-1 4M400 356l3 3M508 359l5 4M467 363l-5 1M419 363l-3 2M483 364l6 3M442 363l-4 4M493 371l2 3M485 371l-2 5M458 380l0 4M449 383l-6 2M440 383l1 4M386 387l6 2M459 389l0 4M335 390l-2 4M435 393l-2 4M298 398l4 2M309 399l-4 3M385 404l3 5" stroke="#955424" stroke-width="6" stroke-linecap="round" fill="none"/><g transform="translate(230 300) rotate(29)"><ellipse rx="7.5" ry="5.4" fill="#2F8C33"/><ellipse rx="3.9" ry="2.4" fill="#9AD46F"/></g><g transform="translate(270.5 352) rotate(15)"><ellipse rx="7" ry="5.6" fill="#D0211B"/><ellipse rx="3.5" ry="2.6" fill="#F6A36C"/></g><g transform="translate(321.7 386) rotate(-38)"><ellipse rx="8" ry="5.8" fill="#2F8C33"/><ellipse rx="4.2" ry="2.6" fill="#9AD46F"/></g><g transform="translate(395.4 400) rotate(10)"><ellipse rx="7.6" ry="5.4" fill="#2F8C33"/><ellipse rx="3.9" ry="2.4" fill="#9AD46F"/></g><g transform="translate(465.5 384) rotate(-3)"><ellipse rx="7.8" ry="6.2" fill="#D0211B"/><ellipse rx="3.9" ry="2.9" fill="#F6A36C"/></g><g transform="translate(509.7 336) rotate(-9)"><ellipse rx="8.1" ry="5.8" fill="#2F8C33"/><ellipse rx="4.2" ry="2.6" fill="#9AD46F"/></g><g transform="translate(527.6 286) rotate(-15)"><ellipse rx="7.6" ry="5.4" fill="#2F8C33"/><ellipse rx="3.9" ry="2.4" fill="#9AD46F"/></g><g transform="translate(286.2 250) rotate(-8)"><ellipse rx="6.7" ry="5.4" fill="#D0211B"/><ellipse rx="3.4" ry="2.6" fill="#F6A36C"/></g><g transform="translate(244.8 336) rotate(18)"><ellipse rx="8.3" ry="6" fill="#2F8C33"/><ellipse rx="4.3" ry="2.6" fill="#9AD46F"/></g><g transform="translate(434.5 404) rotate(35)"><ellipse rx="7.1" ry="5.1" fill="#2F8C33"/><ellipse rx="3.7" ry="2.3" fill="#9AD46F"/></g><g transform="translate(356.8 360) rotate(36)"><ellipse rx="7.3" ry="5.8" fill="#D0211B"/><ellipse rx="3.7" ry="2.8" fill="#F6A36C"/></g><g transform="translate(486.7 360) rotate(-6)"><ellipse rx="7" ry="5.1" fill="#2F8C33"/><ellipse rx="3.7" ry="2.3" fill="#9AD46F"/></g><g transform="translate(303.6 312) rotate(-18)"><ellipse rx="7.1" ry="5.1" fill="#2F8C33"/><ellipse rx="3.7" ry="2.3" fill="#9AD46F"/></g><g transform="translate(497 252) rotate(-18)"><ellipse rx="6.8" ry="5.5" fill="#D0211B"/><ellipse rx="3.4" ry="2.6" fill="#F6A36C"/></g><g transform="translate(223.2 270) rotate(-10)"><ellipse rx="7" ry="5.1" fill="#2F8C33"/><ellipse rx="3.7" ry="2.2" fill="#9AD46F"/></g><g transform="translate(405.4 368) rotate(-29)"><ellipse rx="8.5" ry="6.1" fill="#2F8C33"/><ellipse rx="4.4" ry="2.7" fill="#9AD46F"/></g><g transform="translate(325.8 410) rotate(2)"><ellipse rx="6.6" ry="5.3" fill="#D0211B"/><ellipse rx="3.3" ry="2.5" fill="#F6A36C"/></g><ellipse cx="394" cy="272" rx="112" ry="36" fill="#5A2C0C" opacity=".25"/><path d="M512.3 260.6C508.5 266.8 485.1 267.6 477.5 273.8C469.8 279.9 474.6 293.1 466.4 297.4C458.2 301.8 440 297.6 428.4 300C416.8 302.4 407.8 311.6 397 311.8C386.2 312.1 375.7 302.8 363.6 301.5C351.6 300.3 334.3 307.5 324.9 304.3C315.6 301.1 316.4 287.7 307.8 282.3C299.1 276.9 278 277.5 272.9 271.7C267.8 265.8 279.5 255 277 247.5C274.4 240 256.8 233.4 257.5 226.8C258.2 220.2 277.5 215.2 281.3 207.8C285 200.5 274 188.1 280 182.6C286 177 307.3 179.2 317.3 174.6C327.3 170 330 157.2 340.1 155C350.3 152.8 365.9 161.6 378.1 161.2C390.4 160.9 403.1 151.5 413.6 152.8C424.1 154.1 429.9 165.7 441.1 169C452.2 172.3 472.8 167.9 480.7 172.5C488.6 177.1 482.6 189.8 488.6 196.7C494.7 203.5 515.3 207 517.2 213.7C519.1 220.3 500.9 228.7 500.1 236.6C499.3 244.4 516.1 254.4 512.3 260.6Z" fill="#E9B266"/><path d="M506.6 242.8C504.1 248.8 487.1 252.3 481.8 258.5C476.5 264.7 482.1 275.8 474.9 280.1C467.7 284.4 448.9 280.9 438.7 284.4C428.6 287.8 423.8 299.3 414 300.7C404.2 302.1 391.2 293.4 379.9 292.7C368.5 291.9 355.4 298 345.7 296.2C336 294.3 331.2 285.3 321.5 281.6C311.7 277.9 293.3 278.9 287.2 274C281.1 269 288.8 258.4 284.6 251.8C280.4 245.2 263.3 240.6 261.9 234.4C260.6 228.2 273.9 221.4 276.6 214.6C279.3 207.8 272.9 199.1 277.9 193.6C282.9 188 298.5 186.3 306.5 181.3C314.4 176.3 316.6 166.5 325.7 163.6C334.8 160.6 350.1 165.1 361.3 163.8C372.5 162.5 382.5 155.6 392.9 155.8C403.2 156 412.6 162.7 423.3 164.9C434.1 167 449.3 164.9 457.3 168.8C465.2 172.7 463.7 183.1 471.1 188.4C478.4 193.8 497.1 195.3 501.4 200.9C505.7 206.5 496.1 215.3 497 222.3C497.9 229.2 509.1 236.7 506.6 242.8Z" fill="#EEE8DF"/><path d="M506.6 242.8C504.1 248.8 487.1 252.3 481.8 258.5C476.5 264.7 482.1 275.8 474.9 280.1C467.7 284.4 448.9 280.9 438.7 284.4C428.6 287.8 423.8 299.3 414 300.7C404.2 302.1 391.2 293.4 379.9 292.7C368.5 291.9 355.4 298 345.7 296.2C336 294.3 331.2 285.3 321.5 281.6C311.7 277.9 293.3 278.9 287.2 274C281.1 269 288.8 258.4 284.6 251.8C280.4 245.2 263.3 240.6 261.9 234.4C260.6 228.2 273.9 221.4 276.6 214.6C279.3 207.8 272.9 199.1 277.9 193.6C282.9 188 298.5 186.3 306.5 181.3C314.4 176.3 316.6 166.5 325.7 163.6C334.8 160.6 350.1 165.1 361.3 163.8C372.5 162.5 382.5 155.6 392.9 155.8C403.2 156 412.6 162.7 423.3 164.9C434.1 167 449.3 164.9 457.3 168.8C465.2 172.7 463.7 183.1 471.1 188.4C478.4 193.8 497.1 195.3 501.4 200.9C505.7 206.5 496.1 215.3 497 222.3C497.9 229.2 509.1 236.7 506.6 242.8Z" fill="#FFFFFF" transform="translate(21.2 8.7) scale(.94)"/><ellipse cx="340" cy="198" rx="40" ry="16" fill="#FFFFFF" opacity=".9"/><ellipse cx="397" cy="229" rx="40" ry="34" fill="#EE8A00"/><ellipse cx="396" cy="226" rx="38" ry="31" fill="#FFAF12"/><ellipse cx="390" cy="220" rx="26" ry="19" fill="#FFC53F"/><ellipse cx="381" cy="212" rx="11" ry="6" fill="#FFF1C2" transform="rotate(-20 381 212)"/><path d="M299 211l3 5M321 259l-5 5M468 259l4 7M456 204l4 4M345 291l5 1M255 312l-5 0M423 299l-5 2M496 297l0 5M287 364l-3 8M383 338l-6 4M455 334l-5 3M228 328l3 4" stroke="#8A4A1C" stroke-width="4.5" stroke-linecap="round" fill="none"/><g transform="translate(312 236) rotate(20)"><ellipse rx="7" ry="5" fill="#2F8C33"/><ellipse rx="3.6" ry="2.2" fill="#9AD46F"/></g><g transform="translate(470 244) rotate(-30)"><ellipse rx="7" ry="5" fill="#2F8C33"/><ellipse rx="3.6" ry="2.2" fill="#9AD46F"/></g><g transform="translate(350 266) rotate(10)"><ellipse rx="6.5" ry="5.2" fill="#D0211B"/><ellipse rx="3.2" ry="2.5" fill="#F6A36C"/></g><g transform="translate(436 272) rotate(40)"><ellipse rx="6" ry="4.3" fill="#2F8C33"/><ellipse rx="3.1" ry="1.9" fill="#9AD46F"/></g><ellipse cx="320" cy="446" rx="140" ry="20" fill="#101828" opacity=".08"/><ellipse cx="226" cy="401" rx="36" ry="26" fill="#B51E19"/><ellipse cx="226" cy="398" rx="36" ry="26" fill="#E2362C"/><ellipse cx="226" cy="398" rx="31" ry="22" fill="#EF5A47"/><ellipse cx="237.5" cy="406.3" rx="9.4" ry="6.8" fill="#F7826F"/><circle cx="239.5" cy="405.3" r="2.2" fill="#FFE08A"/><circle cx="234.5" cy="408.3" r="2.2" fill="#FFE08A"/><ellipse cx="214.5" cy="406.3" rx="9.4" ry="6.8" fill="#F7826F"/><circle cx="216.5" cy="405.3" r="2.2" fill="#FFE08A"/><circle cx="211.5" cy="408.3" r="2.2" fill="#FFE08A"/><ellipse cx="214.5" cy="389.7" rx="9.4" ry="6.8" fill="#F7826F"/><circle cx="216.5" cy="388.7" r="2.2" fill="#FFE08A"/><circle cx="211.5" cy="391.7" r="2.2" fill="#FFE08A"/><ellipse cx="237.5" cy="389.7" rx="9.4" ry="6.8" fill="#F7826F"/><circle cx="239.5" cy="388.7" r="2.2" fill="#FFE08A"/><circle cx="234.5" cy="391.7" r="2.2" fill="#FFE08A"/><ellipse cx="226" cy="398" rx="6.5" ry="5.2" fill="#F9B2A0"/><ellipse cx="270" cy="431" rx="36" ry="26" fill="#B51E19"/><ellipse cx="270" cy="428" rx="36" ry="26" fill="#E2362C"/><ellipse cx="270" cy="428" rx="31" ry="22" fill="#EF5A47"/><ellipse cx="281.5" cy="436.3" rx="9.4" ry="6.8" fill="#F7826F"/><circle cx="283.5" cy="435.3" r="2.2" fill="#FFE08A"/><circle cx="278.5" cy="438.3" r="2.2" fill="#FFE08A"/><ellipse cx="258.5" cy="436.3" rx="9.4" ry="6.8" fill="#F7826F"/><circle cx="260.5" cy="435.3" r="2.2" fill="#FFE08A"/><circle cx="255.5" cy="438.3" r="2.2" fill="#FFE08A"/><ellipse cx="258.5" cy="419.7" rx="9.4" ry="6.8" fill="#F7826F"/><circle cx="260.5" cy="418.7" r="2.2" fill="#FFE08A"/><circle cx="255.5" cy="421.7" r="2.2" fill="#FFE08A"/><ellipse cx="281.5" cy="419.7" rx="9.4" ry="6.8" fill="#F7826F"/><circle cx="283.5" cy="418.7" r="2.2" fill="#FFE08A"/><circle cx="278.5" cy="421.7" r="2.2" fill="#FFE08A"/><ellipse cx="270" cy="428" rx="6.5" ry="5.2" fill="#F9B2A0"/><ellipse cx="328" cy="443" rx="34" ry="24" fill="#2B7326"/><ellipse cx="328" cy="440" rx="34" ry="24" fill="#4B9C34"/><ellipse cx="328" cy="440" rx="29" ry="20" fill="#D9EFBF"/><ellipse cx="328" cy="440" rx="16.3" ry="11.5" fill="#EEF8E0"/><g fill="#B5D68A"><ellipse rx="3.2" ry="1.6" transform="translate(337.7 442.1) rotate(17)"/><ellipse rx="3.2" ry="1.6" transform="translate(330.3 447) rotate(77)"/><ellipse rx="3.2" ry="1.6" transform="translate(320.5 444.9) rotate(137)"/><ellipse rx="3.2" ry="1.6" transform="translate(318.3 437.9) rotate(197)"/><ellipse rx="3.2" ry="1.6" transform="translate(325.7 433) rotate(257)"/><ellipse rx="3.2" ry="1.6" transform="translate(335.5 435.1) rotate(317)"/></g><ellipse cx="386" cy="453" rx="34" ry="24" fill="#2B7326"/><ellipse cx="386" cy="450" rx="34" ry="24" fill="#4B9C34"/><ellipse cx="386" cy="450" rx="29" ry="20" fill="#D9EFBF"/><ellipse cx="386" cy="450" rx="16.3" ry="11.5" fill="#EEF8E0"/><g fill="#B5D68A"><ellipse rx="3.2" ry="1.6" transform="translate(395.7 452.1) rotate(17)"/><ellipse rx="3.2" ry="1.6" transform="translate(388.3 457) rotate(77)"/><ellipse rx="3.2" ry="1.6" transform="translate(378.5 454.9) rotate(137)"/><ellipse rx="3.2" ry="1.6" transform="translate(376.3 447.9) rotate(197)"/><ellipse rx="3.2" ry="1.6" transform="translate(383.7 443) rotate(257)"/><ellipse rx="3.2" ry="1.6" transform="translate(393.5 445.1) rotate(317)"/></g><ellipse cx="444" cy="447" rx="34" ry="24" fill="#2B7326"/><ellipse cx="444" cy="444" rx="34" ry="24" fill="#4B9C34"/><ellipse cx="444" cy="444" rx="29" ry="20" fill="#D9EFBF"/><ellipse cx="444" cy="444" rx="16.3" ry="11.5" fill="#EEF8E0"/><g fill="#B5D68A"><ellipse rx="3.2" ry="1.6" transform="translate(453.7 446.1) rotate(17)"/><ellipse rx="3.2" ry="1.6" transform="translate(446.3 451) rotate(77)"/><ellipse rx="3.2" ry="1.6" transform="translate(436.5 448.9) rotate(137)"/><ellipse rx="3.2" ry="1.6" transform="translate(434.3 441.9) rotate(197)"/><ellipse rx="3.2" ry="1.6" transform="translate(441.7 437) rotate(257)"/><ellipse rx="3.2" ry="1.6" transform="translate(451.5 439.1) rotate(317)"/></g></svg>
